<?xml version="1.0" standalone="no"?>
<!DOCTYPE svg PUBLIC "-//W3C//DTD SVG 20010904//EN"
 "http://www.w3.org/TR/2001/REC-SVG-20010904/DTD/svg10.dtd">
<svg version="1.0" xmlns="http://www.w3.org/2000/svg"
 width="609.000000pt" height="801.000000pt" viewBox="0 0 609.000000 801.000000"
 preserveAspectRatio="xMidYMid meet">

<g transform="translate(0.000000,801.000000) scale(0.100000,-0.100000)"
fill="#000000" stroke="none">
<path d="M0 4005 l0 -4005 2700 0 c2393 0 2700 2 2700 15 0 12 14 15 65 15 51
0 65 -3 65 -15 0 -13 38 -15 280 -15 l280 0 0 4005 0 4005 -3045 0 -3045 0 0
-4005z m1150 3475 c0 -27 2 -30 25 -24 38 9 55 -11 55 -67 0 -27 -4 -49 -10
-49 -5 0 -10 20 -10 45 0 32 -5 47 -15 51 -25 10 -45 -16 -45 -57 0 -22 -4
-39 -10 -39 -6 0 -10 35 -10 85 0 50 4 85 10 85 6 0 10 -14 10 -30z m780 0 c0
-27 2 -29 28 -24 35 7 55 -15 54 -59 -1 -38 -26 -59 -67 -55 l-30 3 -3 83 c-2
52 1 82 8 82 5 0 10 -13 10 -30z m520 0 c0 -27 2 -29 28 -24 35 7 55 -15 54
-59 -1 -38 -26 -59 -67 -55 l-30 3 -3 83 c-2 52 1 82 8 82 5 0 10 -13 10 -30z
m-2133 4 c2 -6 -8 -9 -25 -6 -50 7 -83 -66 -46 -102 25 -25 54 -20 54 9 0 16
-6 25 -15 25 -8 0 -15 5 -15 10 0 6 12 10 26 10 23 0 25 -3 22 -42 -3 -40 -5
-43 -35 -46 -67 -7 -100 83 -51 135 23 25 78 29 85 7z m723 -4 c0 -16 7 -20
30 -20 17 0 30 -4 30 -10 0 -5 -13 -10 -30 -10 -25 0 -30 -4 -30 -24 0 -40 11
-56 36 -56 13 0 24 -4 24 -10 0 -14 -54 -12 -68 2 -7 7 -12 29 -12 50 0 27 -4
38 -15 38 -8 0 -15 5 -15 10 0 6 7 10 15 10 8 0 15 9 15 20 0 11 5 20 10 20 6
0 10 -9 10 -20z m1690 0 c0 -16 7 -20 30 -20 17 0 30 -4 30 -10 0 -5 -13 -10
-30 -10 -25 0 -30 -4 -30 -24 0 -40 11 -56 36 -56 13 0 24 -4 24 -10 0 -14
-54 -12 -68 2 -7 7 -12 29 -12 50 0 27 -4 38 -15 38 -8 0 -15 5 -15 10 0 6 7
10 15 10 8 0 15 9 15 20 0 11 5 20 10 20 6 0 10 -9 10 -20z m810 -50 c0 -56 3
-70 15 -70 8 0 15 -4 15 -10 0 -5 -22 -10 -50 -10 -27 0 -50 5 -50 10 0 6 9
10 20 10 18 0 20 7 20 56 0 51 -2 55 -20 49 -11 -4 -20 -2 -20 4 0 13 30 30
53 31 15 0 17 -10 17 -70z m540 60 c0 -5 -13 -10 -30 -10 -43 0 -41 -33 3 -45
65 -20 37 -95 -35 -95 -16 0 -28 5 -28 10 0 6 13 10 29 10 60 0 63 55 3 62
-23 3 -27 8 -30 41 l-3 37 45 0 c25 0 46 -4 46 -10z m131 -7 c22 -26 18 -112
-5 -129 -48 -34 -96 -1 -96 66 0 48 24 80 59 80 16 0 35 -7 42 -17z m383 -4
c18 -26 12 -44 -27 -86 l-31 -33 37 0 c20 0 37 -4 37 -10 0 -5 -22 -10 -50
-10 -61 0 -64 13 -15 60 47 45 45 76 -4 72 -29 -2 -32 0 -21 13 18 22 56 19
74 -6z m126 6 c7 -9 10 -27 7 -45 -4 -16 -2 -32 3 -35 15 -9 12 -32 -6 -49
-17 -18 -84 -22 -84 -6 0 6 15 10 34 10 19 0 38 5 41 10 9 15 -14 40 -36 40
-27 0 -24 18 4 22 14 2 22 10 22 23 0 15 -8 21 -33 23 -18 2 -30 8 -27 13 10
14 61 11 75 -6z m-4350 -70 c0 -32 5 -47 15 -51 25 -10 45 16 45 57 0 22 5 39
10 39 6 0 10 -26 10 -58 l0 -58 -37 -1 c-21 -1 -44 3 -50 9 -15 12 -18 108 -3
108 6 0 10 -20 10 -45z m198 33 c7 -7 12 -22 12 -35 0 -20 -5 -23 -41 -23 -28
0 -39 -4 -36 -12 2 -7 20 -13 40 -13 39 0 48 -9 21 -19 -53 -21 -101 16 -88
68 10 41 65 61 92 34z m132 2 c0 -5 -13 -10 -30 -10 -40 0 -38 -16 5 -34 36
-15 44 -33 23 -54 -14 -14 -88 -16 -88 -2 0 6 16 10 35 10 43 0 46 17 6 31
-57 20 -46 69 15 69 19 0 34 -4 34 -10z m130 0 c0 -5 -13 -10 -30 -10 -40 0
-38 -16 5 -34 36 -15 44 -33 23 -54 -14 -14 -88 -16 -88 -2 0 6 16 10 35 10
43 0 46 17 6 31 -57 20 -46 69 15 69 19 0 34 -4 34 -10z m518 -2 c7 -7 12 -22
12 -35 0 -20 -5 -23 -41 -23 -28 0 -39 -4 -36 -12 2 -7 20 -13 40 -13 39 0 48
-9 21 -19 -53 -21 -101 16 -88 68 10 41 65 61 92 34z m260 0 c14 -12 17 -108
2 -108 -5 0 -10 20 -10 45 0 32 -5 47 -15 51 -25 10 -45 -16 -45 -57 0 -22 -4
-39 -10 -39 -6 0 -10 26 -10 58 l0 58 38 1 c20 1 43 -3 50 -9z m62 -33 c0 -32
5 -47 15 -51 25 -10 45 16 45 57 0 22 5 39 10 39 6 0 10 -26 10 -58 l0 -58
-37 -1 c-21 -1 -44 3 -50 9 -15 12 -18 108 -3 108 6 0 10 -20 10 -45z m218
-17 c2 -36 -1 -58 -8 -58 -5 0 -10 22 -10 50 0 49 -12 66 -24 34 -3 -9 -6 -31
-6 -50 0 -19 -4 -34 -10 -34 -5 0 -10 23 -10 50 0 49 -12 66 -24 34 -3 -9 -6
-31 -6 -50 0 -19 -4 -34 -10 -34 -6 0 -10 26 -10 59 l0 58 58 -1 57 -1 3 -57z
m240 50 c7 -7 12 -22 12 -35 0 -20 -5 -23 -41 -23 -28 0 -39 -4 -36 -12 2 -7
20 -13 40 -13 39 0 48 -9 21 -19 -53 -21 -101 16 -88 68 10 41 65 61 92 34z
m142 -8 c13 -25 13 -30 -5 -30 -8 0 -15 7 -15 15 0 8 -6 15 -13 15 -23 0 -37
-23 -37 -62 0 -27 -4 -38 -15 -38 -12 0 -15 13 -15 58 l0 57 45 2 c35 1 47 -3
55 -17z m378 8 c7 -7 12 -22 12 -35 0 -20 -5 -23 -41 -23 -28 0 -39 -4 -36
-12 2 -7 20 -13 40 -13 39 0 48 -9 21 -19 -53 -21 -101 16 -88 68 10 41 65 61
92 34z m182 -22 c0 -42 15 -55 24 -21 8 32 24 32 32 -1 8 -32 24 -13 24 29 0
15 5 27 11 27 8 0 10 -15 5 -46 -3 -26 -6 -53 -6 -60 0 -25 -30 -15 -41 14
l-11 27 -10 -27 c-16 -46 -34 -33 -45 32 -8 48 -7 60 4 60 8 0 13 -12 13 -34z
m208 22 c7 -7 12 -22 12 -35 0 -20 -5 -23 -41 -23 -28 0 -39 -4 -36 -12 2 -7
20 -13 40 -13 39 0 48 -9 21 -19 -53 -21 -101 16 -88 68 10 41 65 61 92 34z
m130 0 c7 -7 12 -22 12 -35 0 -20 -5 -23 -41 -23 -28 0 -39 -4 -36 -12 2 -7
20 -13 40 -13 39 0 48 -9 21 -19 -53 -21 -101 16 -88 68 10 41 65 61 92 34z
m130 0 c14 -12 17 -108 2 -108 -5 0 -10 20 -10 45 0 32 -5 47 -15 51 -25 10
-45 -16 -45 -57 0 -22 -4 -39 -10 -39 -6 0 -10 26 -10 58 l0 58 38 1 c20 1 43
-3 50 -9z m1018 1 c10 -17 -13 -36 -27 -22 -12 12 -4 33 11 33 5 0 12 -5 16
-11z m-496 -39 c0 -5 -18 -10 -40 -10 -22 0 -40 5 -40 10 0 6 18 10 40 10 22
0 40 -4 40 -10z m496 -41 c10 -17 -13 -36 -27 -22 -12 12 -4 33 11 33 5 0 12
-5 16 -11z m-3516 -224 c0 -68 2 -75 20 -75 11 0 20 -4 20 -10 0 -5 -22 -10
-50 -10 -27 0 -50 5 -50 10 0 6 9 10 20 10 18 0 20 7 20 65 0 50 -3 65 -14 65
-8 0 -18 5 -21 10 -4 6 7 10 24 10 l31 0 0 -75z m-470 55 c0 -5 -11 -10 -25
-10 -24 0 -25 -2 -25 -70 0 -40 -4 -70 -10 -70 -6 0 -10 30 -10 70 0 68 -1 70
-25 70 -14 0 -25 5 -25 10 0 6 27 10 60 10 33 0 60 -4 60 -10z m120 -62 c13
-25 13 -31 0 -55 -19 -34 -63 -42 -91 -17 -23 21 -24 52 -3 82 23 33 73 27 94
-10z m130 0 c13 -25 13 -31 0 -55 -19 -34 -63 -42 -91 -17 -23 21 -24 52 -3
82 23 33 73 27 94 -10z m390 0 c13 -25 13 -31 0 -55 -19 -34 -63 -42 -91 -17
-23 21 -24 52 -3 82 23 33 73 27 94 -10z m40 -2 c0 -42 15 -55 24 -21 8 32 24
32 32 -1 8 -32 24 -13 24 29 0 15 5 27 11 27 8 0 10 -15 5 -46 -3 -26 -6 -53
-6 -60 0 -25 -30 -15 -41 14 l-11 27 -10 -27 c-16 -46 -34 -33 -45 32 -8 48
-7 60 4 60 8 0 13 -12 13 -34z m140 -526 c0 -27 2 -30 25 -24 38 9 55 -11 55
-67 0 -27 -4 -49 -10 -49 -5 0 -10 20 -10 45 0 32 -5 47 -15 51 -25 10 -45
-16 -45 -57 0 -22 -4 -39 -10 -39 -6 0 -10 35 -10 85 0 50 4 85 10 85 6 0 10
-14 10 -30z m780 0 c0 -27 2 -29 28 -24 35 7 55 -15 54 -59 -1 -38 -26 -59
-67 -55 l-30 3 -3 83 c-2 52 1 82 8 82 5 0 10 -13 10 -30z m520 0 c0 -27 2
-29 28 -24 35 7 55 -15 54 -59 -1 -38 -26 -59 -67 -55 l-30 3 -3 83 c-2 52 1
82 8 82 5 0 10 -13 10 -30z m-2133 4 c2 -6 -8 -9 -25 -6 -50 7 -83 -66 -46
-102 25 -25 54 -20 54 9 0 16 -6 25 -15 25 -8 0 -15 5 -15 10 0 6 12 10 26 10
23 0 25 -3 22 -42 -3 -40 -5 -43 -35 -46 -67 -7 -100 83 -51 135 23 25 78 29
85 7z m723 -4 c0 -16 7 -20 30 -20 17 0 30 -4 30 -10 0 -5 -13 -10 -30 -10
-25 0 -30 -4 -30 -24 0 -40 11 -56 36 -56 13 0 24 -4 24 -10 0 -14 -54 -12
-68 2 -7 7 -12 29 -12 50 0 27 -4 38 -15 38 -8 0 -15 5 -15 10 0 6 7 10 15 10
8 0 15 9 15 20 0 11 5 20 10 20 6 0 10 -9 10 -20z m1690 0 c0 -16 7 -20 30
-20 17 0 30 -4 30 -10 0 -5 -13 -10 -30 -10 -25 0 -30 -4 -30 -24 0 -40 11
-56 36 -56 13 0 24 -4 24 -10 0 -14 -54 -12 -68 2 -7 7 -12 29 -12 50 0 27 -4
38 -15 38 -8 0 -15 5 -15 10 0 6 7 10 15 10 8 0 15 9 15 20 0 11 5 20 10 20 6
0 10 -9 10 -20z m810 -50 c0 -56 3 -70 15 -70 8 0 15 -4 15 -10 0 -5 -22 -10
-50 -10 -27 0 -50 5 -50 10 0 6 9 10 20 10 18 0 20 7 20 56 0 51 -2 55 -20 49
-11 -4 -20 -2 -20 4 0 13 30 30 53 31 15 0 17 -10 17 -70z m540 60 c0 -5 -13
-10 -30 -10 -43 0 -41 -33 3 -45 65 -20 37 -95 -35 -95 -16 0 -28 5 -28 10 0
6 13 10 29 10 60 0 63 55 3 62 -23 3 -27 8 -30 41 l-3 37 45 0 c25 0 46 -4 46
-10z m131 -7 c22 -26 18 -112 -5 -129 -48 -34 -96 -1 -96 66 0 48 24 80 59 80
16 0 35 -7 42 -17z m379 -33 c0 -38 4 -50 15 -50 8 0 15 -4 15 -10 0 -5 -7
-10 -15 -10 -8 0 -15 -9 -15 -20 0 -11 -4 -20 -10 -20 -5 0 -10 9 -10 20 0 17
-7 20 -40 20 -22 0 -40 2 -40 5 0 3 16 30 36 60 47 70 64 71 64 5z m141 33
c22 -26 18 -112 -5 -129 -48 -34 -96 -1 -96 66 0 48 24 80 59 80 16 0 35 -7
42 -17z m-4361 -68 c0 -32 5 -47 15 -51 25 -10 45 16 45 57 0 22 5 39 10 39 6
0 10 -26 10 -58 l0 -58 -37 -1 c-21 -1 -44 3 -50 9 -15 12 -18 108 -3 108 6 0
10 -20 10 -45z m198 33 c7 -7 12 -22 12 -35 0 -20 -5 -23 -41 -23 -28 0 -39
-4 -36 -12 2 -7 20 -13 40 -13 39 0 48 -9 21 -19 -53 -21 -101 16 -88 68 10
41 65 61 92 34z m132 2 c0 -5 -13 -10 -30 -10 -40 0 -38 -16 5 -34 36 -15 44
-33 23 -54 -14 -14 -88 -16 -88 -2 0 6 16 10 35 10 43 0 46 17 6 31 -57 20
-46 69 15 69 19 0 34 -4 34 -10z m130 0 c0 -5 -13 -10 -30 -10 -40 0 -38 -16
5 -34 36 -15 44 -33 23 -54 -14 -14 -88 -16 -88 -2 0 6 16 10 35 10 43 0 46
17 6 31 -57 20 -46 69 15 69 19 0 34 -4 34 -10z m518 -2 c7 -7 12 -22 12 -35
0 -20 -5 -23 -41 -23 -28 0 -39 -4 -36 -12 2 -7 20 -13 40 -13 39 0 48 -9 21
-19 -53 -21 -101 16 -88 68 10 41 65 61 92 34z m260 0 c14 -12 17 -108 2 -108
-5 0 -10 20 -10 45 0 32 -5 47 -15 51 -25 10 -45 -16 -45 -57 0 -22 -4 -39
-10 -39 -6 0 -10 26 -10 58 l0 58 38 1 c20 1 43 -3 50 -9z m62 -33 c0 -32 5
-47 15 -51 25 -10 45 16 45 57 0 22 5 39 10 39 6 0 10 -26 10 -58 l0 -58 -37
-1 c-21 -1 -44 3 -50 9 -15 12 -18 108 -3 108 6 0 10 -20 10 -45z m218 -17 c2
-36 -1 -58 -8 -58 -5 0 -10 22 -10 50 0 49 -12 66 -24 34 -3 -9 -6 -31 -6 -50
0 -19 -4 -34 -10 -34 -5 0 -10 23 -10 50 0 49 -12 66 -24 34 -3 -9 -6 -31 -6
-50 0 -19 -4 -34 -10 -34 -6 0 -10 26 -10 59 l0 58 58 -1 57 -1 3 -57z m240
50 c7 -7 12 -22 12 -35 0 -20 -5 -23 -41 -23 -28 0 -39 -4 -36 -12 2 -7 20
-13 40 -13 39 0 48 -9 21 -19 -53 -21 -101 16 -88 68 10 41 65 61 92 34z m142
-8 c13 -25 13 -30 -5 -30 -8 0 -15 7 -15 15 0 8 -6 15 -13 15 -23 0 -37 -23
-37 -62 0 -27 -4 -38 -15 -38 -12 0 -15 13 -15 58 l0 57 45 2 c35 1 47 -3 55
-17z m378 8 c7 -7 12 -22 12 -35 0 -20 -5 -23 -41 -23 -28 0 -39 -4 -36 -12 2
-7 20 -13 40 -13 39 0 48 -9 21 -19 -53 -21 -101 16 -88 68 10 41 65 61 92 34z
m182 -22 c0 -42 15 -55 24 -21 8 32 24 32 32 -1 8 -32 24 -13 24 29 0 15 5 27
11 27 8 0 10 -15 5 -46 -3 -26 -6 -53 -6 -60 0 -25 -30 -15 -41 14 l-11 27
-10 -27 c-16 -46 -34 -33 -45 32 -8 48 -7 60 4 60 8 0 13 -12 13 -34z m208 22
c7 -7 12 -22 12 -35 0 -20 -5 -23 -41 -23 -28 0 -39 -4 -36 -12 2 -7 20 -13
40 -13 39 0 48 -9 21 -19 -53 -21 -101 16 -88 68 10 41 65 61 92 34z m130 0
c7 -7 12 -22 12 -35 0 -20 -5 -23 -41 -23 -28 0 -39 -4 -36 -12 2 -7 20 -13
40 -13 39 0 48 -9 21 -19 -53 -21 -101 16 -88 68 10 41 65 61 92 34z m130 0
c14 -12 17 -108 2 -108 -5 0 -10 20 -10 45 0 32 -5 47 -15 51 -25 10 -45 -16
-45 -57 0 -22 -4 -39 -10 -39 -6 0 -10 26 -10 58 l0 58 38 1 c20 1 43 -3 50
-9z m1018 1 c10 -17 -13 -36 -27 -22 -12 12 -4 33 11 33 5 0 12 -5 16 -11z
m-496 -39 c0 -5 -18 -10 -40 -10 -22 0 -40 5 -40 10 0 6 18 10 40 10 22 0 40
-4 40 -10z m496 -41 c10 -17 -13 -36 -27 -22 -12 12 -4 33 11 33 5 0 12 -5 16
-11z m-3556 -179 c0 -27 2 -30 25 -24 38 9 55 -11 55 -67 0 -27 -4 -49 -10
-49 -5 0 -10 20 -10 45 0 32 -5 47 -15 51 -25 10 -45 -16 -45 -57 0 -22 -4
-39 -10 -39 -6 0 -10 35 -10 85 0 50 4 85 10 85 6 0 10 -14 10 -30z m171 15
c-1 -15 -24 -12 -29 3 -3 9 2 13 12 10 10 -1 17 -7 17 -13z m219 -15 c0 -27 2
-30 25 -24 38 9 55 -11 55 -67 0 -27 -4 -49 -10 -49 -5 0 -10 20 -10 45 0 32
-5 47 -15 51 -25 10 -45 -16 -45 -57 0 -22 -4 -39 -10 -39 -6 0 -10 35 -10 85
0 50 4 85 10 85 6 0 10 -14 10 -30z m170 -30 c0 -78 -17 -78 -22 0 -2 43 1 60
10 60 8 0 12 -19 12 -60z m-990 40 c0 -5 -11 -10 -25 -10 -24 0 -25 -2 -25
-70 0 -40 -4 -70 -10 -70 -6 0 -10 30 -10 70 0 68 -1 70 -25 70 -14 0 -25 5
-25 10 0 6 27 10 60 10 33 0 60 -4 60 -10z m120 -62 c13 -25 13 -31 0 -55 -19
-34 -63 -42 -91 -17 -23 21 -24 52 -3 82 23 33 73 27 94 -10z m130 0 c13 -25
13 -31 0 -55 -19 -34 -63 -42 -91 -17 -23 21 -24 52 -3 82 23 33 73 27 94 -10z
m350 -18 c0 -43 3 -50 20 -50 11 0 20 -4 20 -10 0 -5 -22 -10 -50 -10 -27 0
-50 5 -50 10 0 6 9 10 20 10 17 0 20 7 20 40 0 28 -4 40 -14 40 -8 0 -18 5
-21 10 -4 6 7 10 24 10 30 0 31 -1 31 -50z m180 40 c0 -5 -4 -10 -10 -10 -5 0
-7 -6 -4 -14 7 -19 -23 -46 -52 -46 -38 0 -28 -18 12 -22 47 -4 68 -32 40 -54
-39 -28 -122 -8 -102 25 4 6 7 32 8 58 0 26 5 54 10 61 12 14 98 16 98 2z
m211 -95 c-1 -15 -24 -12 -29 3 -3 9 2 13 12 10 10 -1 17 -7 17 -13z m-171
-455 c0 -27 2 -30 25 -24 38 9 55 -11 55 -67 0 -27 -4 -49 -10 -49 -5 0 -10
20 -10 45 0 32 -5 47 -15 51 -25 10 -45 -16 -45 -57 0 -22 -4 -39 -10 -39 -6
0 -10 35 -10 85 0 50 4 85 10 85 6 0 10 -14 10 -30z m780 0 c0 -27 2 -29 28
-24 35 7 55 -15 54 -59 -1 -38 -26 -59 -67 -55 l-30 3 -3 83 c-2 52 1 82 8 82
5 0 10 -13 10 -30z m520 0 c0 -27 2 -29 28 -24 35 7 55 -15 54 -59 -1 -38 -26
-59 -67 -55 l-30 3 -3 83 c-2 52 1 82 8 82 5 0 10 -13 10 -30z m-2133 4 c2 -6
-8 -9 -25 -6 -50 7 -83 -66 -46 -102 25 -25 54 -20 54 9 0 16 -6 25 -15 25 -8
0 -15 5 -15 10 0 6 12 10 26 10 23 0 25 -3 22 -42 -3 -40 -5 -43 -35 -46 -67
-7 -100 83 -51 135 23 25 78 29 85 7z m723 -4 c0 -16 7 -20 30 -20 17 0 30 -4
30 -10 0 -5 -13 -10 -30 -10 -25 0 -30 -4 -30 -24 0 -40 11 -56 36 -56 13 0
24 -4 24 -10 0 -14 -54 -12 -68 2 -7 7 -12 29 -12 50 0 27 -4 38 -15 38 -8 0
-15 5 -15 10 0 6 7 10 15 10 8 0 15 9 15 20 0 11 5 20 10 20 6 0 10 -9 10 -20z
m1690 0 c0 -16 7 -20 30 -20 17 0 30 -4 30 -10 0 -5 -13 -10 -30 -10 -25 0
-30 -4 -30 -24 0 -40 11 -56 36 -56 13 0 24 -4 24 -10 0 -14 -54 -12 -68 2 -7
7 -12 29 -12 50 0 27 -4 38 -15 38 -8 0 -15 5 -15 10 0 6 7 10 15 10 8 0 15 9
15 20 0 11 5 20 10 20 6 0 10 -9 10 -20z m810 -50 c0 -56 3 -70 15 -70 8 0 15
-4 15 -10 0 -5 -22 -10 -50 -10 -27 0 -50 5 -50 10 0 6 9 10 20 10 18 0 20 7
20 56 0 51 -2 55 -20 49 -11 -4 -20 -2 -20 4 0 13 30 30 53 31 15 0 17 -10 17
-70z m540 60 c0 -5 -13 -10 -30 -10 -43 0 -41 -33 3 -45 65 -20 37 -95 -35
-95 -16 0 -28 5 -28 10 0 6 13 10 29 10 60 0 63 55 3 62 -23 3 -27 8 -30 41
l-3 37 45 0 c25 0 46 -4 46 -10z m131 -7 c22 -26 18 -112 -5 -129 -48 -34 -96
-1 -96 66 0 48 24 80 59 80 16 0 35 -7 42 -17z m379 2 c7 -9 10 -27 7 -45 -4
-16 -2 -32 3 -35 15 -9 12 -32 -6 -49 -17 -18 -84 -22 -84 -6 0 6 15 10 34 10
19 0 38 5 41 10 9 15 -14 40 -36 40 -27 0 -24 18 4 22 14 2 22 10 22 23 0 15
-8 21 -33 23 -18 2 -30 8 -27 13 10 14 61 11 75 -6z m141 -2 c22 -26 18 -112
-5 -129 -48 -34 -96 -1 -96 66 0 48 24 80 59 80 16 0 35 -7 42 -17z m-4361
-68 c0 -32 5 -47 15 -51 25 -10 45 16 45 57 0 22 5 39 10 39 6 0 10 -26 10
-58 l0 -58 -37 -1 c-21 -1 -44 3 -50 9 -15 12 -18 108 -3 108 6 0 10 -20 10
-45z m198 33 c7 -7 12 -22 12 -35 0 -20 -5 -23 -41 -23 -28 0 -39 -4 -36 -12
2 -7 20 -13 40 -13 39 0 48 -9 21 -19 -53 -21 -101 16 -88 68 10 41 65 61 92
34z m132 2 c0 -5 -13 -10 -30 -10 -40 0 -38 -16 5 -34 36 -15 44 -33 23 -54
-14 -14 -88 -16 -88 -2 0 6 16 10 35 10 43 0 46 17 6 31 -57 20 -46 69 15 69
19 0 34 -4 34 -10z m130 0 c0 -5 -13 -10 -30 -10 -40 0 -38 -16 5 -34 36 -15
44 -33 23 -54 -14 -14 -88 -16 -88 -2 0 6 16 10 35 10 43 0 46 17 6 31 -57 20
-46 69 15 69 19 0 34 -4 34 -10z m518 -2 c7 -7 12 -22 12 -35 0 -20 -5 -23
-41 -23 -28 0 -39 -4 -36 -12 2 -7 20 -13 40 -13 39 0 48 -9 21 -19 -53 -21
-101 16 -88 68 10 41 65 61 92 34z m260 0 c14 -12 17 -108 2 -108 -5 0 -10 20
-10 45 0 32 -5 47 -15 51 -25 10 -45 -16 -45 -57 0 -22 -4 -39 -10 -39 -6 0
-10 26 -10 58 l0 58 38 1 c20 1 43 -3 50 -9z m62 -33 c0 -32 5 -47 15 -51 25
-10 45 16 45 57 0 22 5 39 10 39 6 0 10 -26 10 -58 l0 -58 -37 -1 c-21 -1 -44
3 -50 9 -15 12 -18 108 -3 108 6 0 10 -20 10 -45z m218 -17 c2 -36 -1 -58 -8
-58 -5 0 -10 22 -10 50 0 49 -12 66 -24 34 -3 -9 -6 -31 -6 -50 0 -19 -4 -34
-10 -34 -5 0 -10 23 -10 50 0 49 -12 66 -24 34 -3 -9 -6 -31 -6 -50 0 -19 -4
-34 -10 -34 -6 0 -10 26 -10 59 l0 58 58 -1 57 -1 3 -57z m240 50 c7 -7 12
-22 12 -35 0 -20 -5 -23 -41 -23 -28 0 -39 -4 -36 -12 2 -7 20 -13 40 -13 39
0 48 -9 21 -19 -53 -21 -101 16 -88 68 10 41 65 61 92 34z m142 -8 c13 -25 13
-30 -5 -30 -8 0 -15 7 -15 15 0 8 -6 15 -13 15 -23 0 -37 -23 -37 -62 0 -27
-4 -38 -15 -38 -12 0 -15 13 -15 58 l0 57 45 2 c35 1 47 -3 55 -17z m378 8 c7
-7 12 -22 12 -35 0 -20 -5 -23 -41 -23 -28 0 -39 -4 -36 -12 2 -7 20 -13 40
-13 39 0 48 -9 21 -19 -53 -21 -101 16 -88 68 10 41 65 61 92 34z m182 -22 c0
-42 15 -55 24 -21 8 32 24 32 32 -1 8 -32 24 -13 24 29 0 15 5 27 11 27 8 0
10 -15 5 -46 -3 -26 -6 -53 -6 -60 0 -25 -30 -15 -41 14 l-11 27 -10 -27 c-16
-46 -34 -33 -45 32 -8 48 -7 60 4 60 8 0 13 -12 13 -34z m208 22 c7 -7 12 -22
12 -35 0 -20 -5 -23 -41 -23 -28 0 -39 -4 -36 -12 2 -7 20 -13 40 -13 39 0 48
-9 21 -19 -53 -21 -101 16 -88 68 10 41 65 61 92 34z m130 0 c7 -7 12 -22 12
-35 0 -20 -5 -23 -41 -23 -28 0 -39 -4 -36 -12 2 -7 20 -13 40 -13 39 0 48 -9
21 -19 -53 -21 -101 16 -88 68 10 41 65 61 92 34z m130 0 c14 -12 17 -108 2
-108 -5 0 -10 20 -10 45 0 32 -5 47 -15 51 -25 10 -45 -16 -45 -57 0 -22 -4
-39 -10 -39 -6 0 -10 26 -10 58 l0 58 38 1 c20 1 43 -3 50 -9z m1018 1 c10
-17 -13 -36 -27 -22 -12 12 -4 33 11 33 5 0 12 -5 16 -11z m-496 -39 c0 -5
-18 -10 -40 -10 -22 0 -40 5 -40 10 0 6 18 10 40 10 22 0 40 -4 40 -10z m496
-41 c10 -17 -13 -36 -27 -22 -12 12 -4 33 11 33 5 0 12 -5 16 -11z m-3516
-224 c0 -68 2 -75 20 -75 11 0 20 -4 20 -10 0 -5 -22 -10 -50 -10 -27 0 -50 5
-50 10 0 6 9 10 20 10 18 0 20 7 20 65 0 50 -3 65 -14 65 -8 0 -18 5 -21 10
-4 6 7 10 24 10 l31 0 0 -75z m-470 55 c0 -5 -11 -10 -25 -10 -24 0 -25 -2
-25 -70 0 -40 -4 -70 -10 -70 -6 0 -10 30 -10 70 0 68 -1 70 -25 70 -14 0 -25
5 -25 10 0 6 27 10 60 10 33 0 60 -4 60 -10z m120 -62 c13 -25 13 -31 0 -55
-19 -34 -63 -42 -91 -17 -23 21 -24 52 -3 82 23 33 73 27 94 -10z m130 0 c13
-25 13 -31 0 -55 -19 -34 -63 -42 -91 -17 -23 21 -24 52 -3 82 23 33 73 27 94
-10z m390 0 c13 -25 13 -31 0 -55 -19 -34 -63 -42 -91 -17 -23 21 -24 52 -3
82 23 33 73 27 94 -10z m40 -2 c0 -42 15 -55 24 -21 8 32 24 32 32 -1 8 -32
24 -13 24 29 0 15 5 27 11 27 8 0 10 -15 5 -46 -3 -26 -6 -53 -6 -60 0 -25
-30 -15 -41 14 l-11 27 -10 -27 c-16 -46 -34 -33 -45 32 -8 48 -7 60 4 60 8 0
13 -12 13 -34z m140 -526 c0 -27 2 -30 25 -24 38 9 55 -11 55 -67 0 -27 -4
-49 -10 -49 -5 0 -10 20 -10 45 0 32 -5 47 -15 51 -25 10 -45 -16 -45 -57 0
-22 -4 -39 -10 -39 -6 0 -10 35 -10 85 0 50 4 85 10 85 6 0 10 -14 10 -30z
m780 0 c0 -27 2 -29 28 -24 35 7 55 -15 54 -59 -1 -38 -26 -59 -67 -55 l-30 3
-3 83 c-2 52 1 82 8 82 5 0 10 -13 10 -30z m520 0 c0 -27 2 -29 28 -24 35 7
55 -15 54 -59 -1 -38 -26 -59 -67 -55 l-30 3 -3 83 c-2 52 1 82 8 82 5 0 10
-13 10 -30z m-2133 4 c2 -6 -8 -9 -25 -6 -50 7 -83 -66 -46 -102 25 -25 54
-20 54 9 0 16 -6 25 -15 25 -8 0 -15 5 -15 10 0 6 12 10 26 10 23 0 25 -3 22
-42 -3 -40 -5 -43 -35 -46 -67 -7 -100 83 -51 135 23 25 78 29 85 7z m723 -4
c0 -16 7 -20 30 -20 17 0 30 -4 30 -10 0 -5 -13 -10 -30 -10 -25 0 -30 -4 -30
-24 0 -40 11 -56 36 -56 13 0 24 -4 24 -10 0 -14 -54 -12 -68 2 -7 7 -12 29
-12 50 0 27 -4 38 -15 38 -8 0 -15 5 -15 10 0 6 7 10 15 10 8 0 15 9 15 20 0
11 5 20 10 20 6 0 10 -9 10 -20z m1690 0 c0 -16 7 -20 30 -20 17 0 30 -4 30
-10 0 -5 -13 -10 -30 -10 -25 0 -30 -4 -30 -24 0 -40 11 -56 36 -56 13 0 24
-4 24 -10 0 -14 -54 -12 -68 2 -7 7 -12 29 -12 50 0 27 -4 38 -15 38 -8 0 -15
5 -15 10 0 6 7 10 15 10 8 0 15 9 15 20 0 11 5 20 10 20 6 0 10 -9 10 -20z
m810 -50 c0 -56 3 -70 15 -70 8 0 15 -4 15 -10 0 -5 -22 -10 -50 -10 -27 0
-50 5 -50 10 0 6 9 10 20 10 18 0 20 7 20 56 0 51 -2 55 -20 49 -11 -4 -20 -2
-20 4 0 13 30 30 53 31 15 0 17 -10 17 -70z m540 60 c0 -5 -13 -10 -30 -10
-43 0 -41 -33 3 -45 65 -20 37 -95 -35 -95 -16 0 -28 5 -28 10 0 6 13 10 29
10 60 0 63 55 3 62 -23 3 -27 8 -30 41 l-3 37 45 0 c25 0 46 -4 46 -10z m131
-7 c22 -26 18 -112 -5 -129 -48 -34 -96 -1 -96 66 0 48 24 80 59 80 16 0 35
-7 42 -17z m379 2 c7 -9 10 -27 7 -45 -4 -16 -2 -32 3 -35 15 -9 12 -32 -6
-49 -17 -18 -84 -22 -84 -6 0 6 15 10 34 10 19 0 38 5 41 10 9 15 -14 40 -36
40 -27 0 -24 18 4 22 14 2 22 10 22 23 0 15 -8 21 -33 23 -18 2 -30 8 -27 13
10 14 61 11 75 -6z m140 5 c0 -5 -13 -10 -30 -10 -43 0 -41 -33 3 -45 65 -20
37 -95 -35 -95 -16 0 -28 5 -28 10 0 6 13 10 29 10 60 0 63 55 3 62 -23 3 -27
8 -30 41 l-3 37 45 0 c25 0 46 -4 46 -10z m-4360 -75 c0 -32 5 -47 15 -51 25
-10 45 16 45 57 0 22 5 39 10 39 6 0 10 -26 10 -58 l0 -58 -37 -1 c-21 -1 -44
3 -50 9 -15 12 -18 108 -3 108 6 0 10 -20 10 -45z m198 33 c7 -7 12 -22 12
-35 0 -20 -5 -23 -41 -23 -28 0 -39 -4 -36 -12 2 -7 20 -13 40 -13 39 0 48 -9
21 -19 -53 -21 -101 16 -88 68 10 41 65 61 92 34z m132 2 c0 -5 -13 -10 -30
-10 -40 0 -38 -16 5 -34 36 -15 44 -33 23 -54 -14 -14 -88 -16 -88 -2 0 6 16
10 35 10 43 0 46 17 6 31 -57 20 -46 69 15 69 19 0 34 -4 34 -10z m130 0 c0
-5 -13 -10 -30 -10 -40 0 -38 -16 5 -34 36 -15 44 -33 23 -54 -14 -14 -88 -16
-88 -2 0 6 16 10 35 10 43 0 46 17 6 31 -57 20 -46 69 15 69 19 0 34 -4 34
-10z m518 -2 c7 -7 12 -22 12 -35 0 -20 -5 -23 -41 -23 -28 0 -39 -4 -36 -12
2 -7 20 -13 40 -13 39 0 48 -9 21 -19 -53 -21 -101 16 -88 68 10 41 65 61 92
34z m260 0 c14 -12 17 -108 2 -108 -5 0 -10 20 -10 45 0 32 -5 47 -15 51 -25
10 -45 -16 -45 -57 0 -22 -4 -39 -10 -39 -6 0 -10 26 -10 58 l0 58 38 1 c20 1
43 -3 50 -9z m62 -33 c0 -32 5 -47 15 -51 25 -10 45 16 45 57 0 22 5 39 10 39
6 0 10 -26 10 -58 l0 -58 -37 -1 c-21 -1 -44 3 -50 9 -15 12 -18 108 -3 108 6
0 10 -20 10 -45z m218 -17 c2 -36 -1 -58 -8 -58 -5 0 -10 22 -10 50 0 49 -12
66 -24 34 -3 -9 -6 -31 -6 -50 0 -19 -4 -34 -10 -34 -5 0 -10 23 -10 50 0 49
-12 66 -24 34 -3 -9 -6 -31 -6 -50 0 -19 -4 -34 -10 -34 -6 0 -10 26 -10 59
l0 58 58 -1 57 -1 3 -57z m240 50 c7 -7 12 -22 12 -35 0 -20 -5 -23 -41 -23
-28 0 -39 -4 -36 -12 2 -7 20 -13 40 -13 39 0 48 -9 21 -19 -53 -21 -101 16
-88 68 10 41 65 61 92 34z m142 -8 c13 -25 13 -30 -5 -30 -8 0 -15 7 -15 15 0
8 -6 15 -13 15 -23 0 -37 -23 -37 -62 0 -27 -4 -38 -15 -38 -12 0 -15 13 -15
58 l0 57 45 2 c35 1 47 -3 55 -17z m378 8 c7 -7 12 -22 12 -35 0 -20 -5 -23
-41 -23 -28 0 -39 -4 -36 -12 2 -7 20 -13 40 -13 39 0 48 -9 21 -19 -53 -21
-101 16 -88 68 10 41 65 61 92 34z m182 -22 c0 -42 15 -55 24 -21 8 32 24 32
32 -1 8 -32 24 -13 24 29 0 15 5 27 11 27 8 0 10 -15 5 -46 -3 -26 -6 -53 -6
-60 0 -25 -30 -15 -41 14 l-11 27 -10 -27 c-16 -46 -34 -33 -45 32 -8 48 -7
60 4 60 8 0 13 -12 13 -34z m208 22 c7 -7 12 -22 12 -35 0 -20 -5 -23 -41 -23
-28 0 -39 -4 -36 -12 2 -7 20 -13 40 -13 39 0 48 -9 21 -19 -53 -21 -101 16
-88 68 10 41 65 61 92 34z m130 0 c7 -7 12 -22 12 -35 0 -20 -5 -23 -41 -23
-28 0 -39 -4 -36 -12 2 -7 20 -13 40 -13 39 0 48 -9 21 -19 -53 -21 -101 16
-88 68 10 41 65 61 92 34z m130 0 c14 -12 17 -108 2 -108 -5 0 -10 20 -10 45
0 32 -5 47 -15 51 -25 10 -45 -16 -45 -57 0 -22 -4 -39 -10 -39 -6 0 -10 26
-10 58 l0 58 38 1 c20 1 43 -3 50 -9z m1018 1 c10 -17 -13 -36 -27 -22 -12 12
-4 33 11 33 5 0 12 -5 16 -11z m-496 -39 c0 -5 -18 -10 -40 -10 -22 0 -40 5
-40 10 0 6 18 10 40 10 22 0 40 -4 40 -10z m496 -41 c10 -17 -13 -36 -27 -22
-12 12 -4 33 11 33 5 0 12 -5 16 -11z m-3516 -224 c0 -68 2 -75 20 -75 11 0
20 -4 20 -10 0 -5 -22 -10 -50 -10 -27 0 -50 5 -50 10 0 6 9 10 20 10 18 0 20
7 20 65 0 50 -3 65 -14 65 -8 0 -18 5 -21 10 -4 6 7 10 24 10 l31 0 0 -75z
m-470 55 c0 -5 -11 -10 -25 -10 -24 0 -25 -2 -25 -70 0 -40 -4 -70 -10 -70 -6
0 -10 30 -10 70 0 68 -1 70 -25 70 -14 0 -25 5 -25 10 0 6 27 10 60 10 33 0
60 -4 60 -10z m120 -62 c13 -25 13 -31 0 -55 -19 -34 -63 -42 -91 -17 -23 21
-24 52 -3 82 23 33 73 27 94 -10z m130 0 c13 -25 13 -31 0 -55 -19 -34 -63
-42 -91 -17 -23 21 -24 52 -3 82 23 33 73 27 94 -10z m390 0 c13 -25 13 -31 0
-55 -19 -34 -63 -42 -91 -17 -23 21 -24 52 -3 82 23 33 73 27 94 -10z m40 -2
c0 -42 15 -55 24 -21 8 32 24 32 32 -1 8 -32 24 -13 24 29 0 15 5 27 11 27 8
0 10 -15 5 -46 -3 -26 -6 -53 -6 -60 0 -25 -30 -15 -41 14 l-11 27 -10 -27
c-16 -46 -34 -33 -45 32 -8 48 -7 60 4 60 8 0 13 -12 13 -34z m140 -526 c0
-27 2 -30 25 -24 38 9 55 -11 55 -67 0 -27 -4 -49 -10 -49 -5 0 -10 20 -10 45
0 32 -5 47 -15 51 -25 10 -45 -16 -45 -57 0 -22 -4 -39 -10 -39 -6 0 -10 35
-10 85 0 50 4 85 10 85 6 0 10 -14 10 -30z m780 0 c0 -27 2 -29 28 -24 35 7
55 -15 54 -59 -1 -38 -26 -59 -67 -55 l-30 3 -3 83 c-2 52 1 82 8 82 5 0 10
-13 10 -30z m520 0 c0 -27 2 -29 28 -24 35 7 55 -15 54 -59 -1 -38 -26 -59
-67 -55 l-30 3 -3 83 c-2 52 1 82 8 82 5 0 10 -13 10 -30z m-2133 4 c2 -6 -8
-9 -25 -6 -50 7 -83 -66 -46 -102 25 -25 54 -20 54 9 0 16 -6 25 -15 25 -8 0
-15 5 -15 10 0 6 12 10 26 10 23 0 25 -3 22 -42 -3 -40 -5 -43 -35 -46 -67 -7
-100 83 -51 135 23 25 78 29 85 7z m723 -4 c0 -16 7 -20 30 -20 17 0 30 -4 30
-10 0 -5 -13 -10 -30 -10 -25 0 -30 -4 -30 -24 0 -40 11 -56 36 -56 13 0 24
-4 24 -10 0 -14 -54 -12 -68 2 -7 7 -12 29 -12 50 0 27 -4 38 -15 38 -8 0 -15
5 -15 10 0 6 7 10 15 10 8 0 15 9 15 20 0 11 5 20 10 20 6 0 10 -9 10 -20z
m1690 0 c0 -16 7 -20 30 -20 17 0 30 -4 30 -10 0 -5 -13 -10 -30 -10 -25 0
-30 -4 -30 -24 0 -40 11 -56 36 -56 13 0 24 -4 24 -10 0 -14 -54 -12 -68 2 -7
7 -12 29 -12 50 0 27 -4 38 -15 38 -8 0 -15 5 -15 10 0 6 7 10 15 10 8 0 15 9
15 20 0 11 5 20 10 20 6 0 10 -9 10 -20z m810 -50 c0 -56 3 -70 15 -70 8 0 15
-4 15 -10 0 -5 -22 -10 -50 -10 -27 0 -50 5 -50 10 0 6 9 10 20 10 18 0 20 7
20 56 0 51 -2 55 -20 49 -11 -4 -20 -2 -20 4 0 13 30 30 53 31 15 0 17 -10 17
-70z m540 60 c0 -5 -13 -10 -30 -10 -43 0 -41 -33 3 -45 65 -20 37 -95 -35
-95 -16 0 -28 5 -28 10 0 6 13 10 29 10 60 0 63 55 3 62 -23 3 -27 8 -30 41
l-3 37 45 0 c25 0 46 -4 46 -10z m131 -7 c22 -26 18 -112 -5 -129 -48 -34 -96
-1 -96 66 0 48 24 80 59 80 16 0 35 -7 42 -17z m379 -33 c0 -38 4 -50 15 -50
8 0 15 -4 15 -10 0 -5 -7 -10 -15 -10 -8 0 -15 -9 -15 -20 0 -11 -4 -20 -10
-20 -5 0 -10 9 -10 20 0 17 -7 20 -40 20 -22 0 -40 2 -40 5 0 3 16 30 36 60
47 70 64 71 64 5z m141 33 c22 -26 18 -112 -5 -129 -48 -34 -96 -1 -96 66 0
48 24 80 59 80 16 0 35 -7 42 -17z m-4361 -68 c0 -32 5 -47 15 -51 25 -10 45
16 45 57 0 22 5 39 10 39 6 0 10 -26 10 -58 l0 -58 -37 -1 c-21 -1 -44 3 -50
9 -15 12 -18 108 -3 108 6 0 10 -20 10 -45z m198 33 c7 -7 12 -22 12 -35 0
-20 -5 -23 -41 -23 -28 0 -39 -4 -36 -12 2 -7 20 -13 40 -13 39 0 48 -9 21
-19 -53 -21 -101 16 -88 68 10 41 65 61 92 34z m132 2 c0 -5 -13 -10 -30 -10
-40 0 -38 -16 5 -34 36 -15 44 -33 23 -54 -14 -14 -88 -16 -88 -2 0 6 16 10
35 10 43 0 46 17 6 31 -57 20 -46 69 15 69 19 0 34 -4 34 -10z m130 0 c0 -5
-13 -10 -30 -10 -40 0 -38 -16 5 -34 36 -15 44 -33 23 -54 -14 -14 -88 -16
-88 -2 0 6 16 10 35 10 43 0 46 17 6 31 -57 20 -46 69 15 69 19 0 34 -4 34
-10z m518 -2 c7 -7 12 -22 12 -35 0 -20 -5 -23 -41 -23 -28 0 -39 -4 -36 -12
2 -7 20 -13 40 -13 39 0 48 -9 21 -19 -53 -21 -101 16 -88 68 10 41 65 61 92
34z m260 0 c14 -12 17 -108 2 -108 -5 0 -10 20 -10 45 0 32 -5 47 -15 51 -25
10 -45 -16 -45 -57 0 -22 -4 -39 -10 -39 -6 0 -10 26 -10 58 l0 58 38 1 c20 1
43 -3 50 -9z m62 -33 c0 -32 5 -47 15 -51 25 -10 45 16 45 57 0 22 5 39 10 39
6 0 10 -26 10 -58 l0 -58 -37 -1 c-21 -1 -44 3 -50 9 -15 12 -18 108 -3 108 6
0 10 -20 10 -45z m218 -17 c2 -36 -1 -58 -8 -58 -5 0 -10 22 -10 50 0 49 -12
66 -24 34 -3 -9 -6 -31 -6 -50 0 -19 -4 -34 -10 -34 -5 0 -10 23 -10 50 0 49
-12 66 -24 34 -3 -9 -6 -31 -6 -50 0 -19 -4 -34 -10 -34 -6 0 -10 26 -10 59
l0 58 58 -1 57 -1 3 -57z m240 50 c7 -7 12 -22 12 -35 0 -20 -5 -23 -41 -23
-28 0 -39 -4 -36 -12 2 -7 20 -13 40 -13 39 0 48 -9 21 -19 -53 -21 -101 16
-88 68 10 41 65 61 92 34z m142 -8 c13 -25 13 -30 -5 -30 -8 0 -15 7 -15 15 0
8 -6 15 -13 15 -23 0 -37 -23 -37 -62 0 -27 -4 -38 -15 -38 -12 0 -15 13 -15
58 l0 57 45 2 c35 1 47 -3 55 -17z m378 8 c7 -7 12 -22 12 -35 0 -20 -5 -23
-41 -23 -28 0 -39 -4 -36 -12 2 -7 20 -13 40 -13 39 0 48 -9 21 -19 -53 -21
-101 16 -88 68 10 41 65 61 92 34z m182 -22 c0 -42 15 -55 24 -21 8 32 24 32
32 -1 8 -32 24 -13 24 29 0 15 5 27 11 27 8 0 10 -15 5 -46 -3 -26 -6 -53 -6
-60 0 -25 -30 -15 -41 14 l-11 27 -10 -27 c-16 -46 -34 -33 -45 32 -8 48 -7
60 4 60 8 0 13 -12 13 -34z m208 22 c7 -7 12 -22 12 -35 0 -20 -5 -23 -41 -23
-28 0 -39 -4 -36 -12 2 -7 20 -13 40 -13 39 0 48 -9 21 -19 -53 -21 -101 16
-88 68 10 41 65 61 92 34z m130 0 c7 -7 12 -22 12 -35 0 -20 -5 -23 -41 -23
-28 0 -39 -4 -36 -12 2 -7 20 -13 40 -13 39 0 48 -9 21 -19 -53 -21 -101 16
-88 68 10 41 65 61 92 34z m130 0 c14 -12 17 -108 2 -108 -5 0 -10 20 -10 45
0 32 -5 47 -15 51 -25 10 -45 -16 -45 -57 0 -22 -4 -39 -10 -39 -6 0 -10 26
-10 58 l0 58 38 1 c20 1 43 -3 50 -9z m1018 1 c10 -17 -13 -36 -27 -22 -12 12
-4 33 11 33 5 0 12 -5 16 -11z m-496 -39 c0 -5 -18 -10 -40 -10 -22 0 -40 5
-40 10 0 6 18 10 40 10 22 0 40 -4 40 -10z m496 -41 c10 -17 -13 -36 -27 -22
-12 12 -4 33 11 33 5 0 12 -5 16 -11z m-3556 -179 c0 -27 2 -30 25 -24 38 9
55 -11 55 -67 0 -27 -4 -49 -10 -49 -5 0 -10 20 -10 45 0 32 -5 47 -15 51 -25
10 -45 -16 -45 -57 0 -22 -4 -39 -10 -39 -6 0 -10 35 -10 85 0 50 4 85 10 85
6 0 10 -14 10 -30z m171 15 c-1 -15 -24 -12 -29 3 -3 9 2 13 12 10 10 -1 17
-7 17 -13z m219 -15 c0 -27 2 -30 25 -24 38 9 55 -11 55 -67 0 -27 -4 -49 -10
-49 -5 0 -10 20 -10 45 0 32 -5 47 -15 51 -25 10 -45 -16 -45 -57 0 -22 -4
-39 -10 -39 -6 0 -10 35 -10 85 0 50 4 85 10 85 6 0 10 -14 10 -30z m170 -30
c0 -78 -17 -78 -22 0 -2 43 1 60 10 60 8 0 12 -19 12 -60z m-990 40 c0 -5 -11
-10 -25 -10 -24 0 -25 -2 -25 -70 0 -40 -4 -70 -10 -70 -6 0 -10 30 -10 70 0
68 -1 70 -25 70 -14 0 -25 5 -25 10 0 6 27 10 60 10 33 0 60 -4 60 -10z m120
-62 c13 -25 13 -31 0 -55 -19 -34 -63 -42 -91 -17 -23 21 -24 52 -3 82 23 33
73 27 94 -10z m130 0 c13 -25 13 -31 0 -55 -19 -34 -63 -42 -91 -17 -23 21
-24 52 -3 82 23 33 73 27 94 -10z m350 -18 c0 -43 3 -50 20 -50 11 0 20 -4 20
-10 0 -5 -22 -10 -50 -10 -27 0 -50 5 -50 10 0 6 9 10 20 10 17 0 20 7 20 40
0 28 -4 40 -14 40 -8 0 -18 5 -21 10 -4 6 7 10 24 10 30 0 31 -1 31 -50z m180
40 c0 -5 -4 -10 -10 -10 -5 0 -7 -6 -4 -14 7 -19 -23 -46 -52 -46 -38 0 -28
-18 12 -22 47 -4 68 -32 40 -54 -39 -28 -122 -8 -102 25 4 6 7 32 8 58 0 26 5
54 10 61 12 14 98 16 98 2z m211 -95 c-1 -15 -24 -12 -29 3 -3 9 2 13 12 10
10 -1 17 -7 17 -13z m-171 -455 c0 -27 2 -30 25 -24 38 9 55 -11 55 -67 0 -27
-4 -49 -10 -49 -5 0 -10 20 -10 45 0 32 -5 47 -15 51 -25 10 -45 -16 -45 -57
0 -22 -4 -39 -10 -39 -6 0 -10 35 -10 85 0 50 4 85 10 85 6 0 10 -14 10 -30z
m780 0 c0 -27 2 -29 28 -24 35 7 55 -15 54 -59 -1 -38 -26 -59 -67 -55 l-30 3
-3 83 c-2 52 1 82 8 82 5 0 10 -13 10 -30z m520 0 c0 -27 2 -29 28 -24 35 7
55 -15 54 -59 -1 -38 -26 -59 -67 -55 l-30 3 -3 83 c-2 52 1 82 8 82 5 0 10
-13 10 -30z m-2133 4 c2 -6 -8 -9 -25 -6 -50 7 -83 -66 -46 -102 25 -25 54
-20 54 9 0 16 -6 25 -15 25 -8 0 -15 5 -15 10 0 6 12 10 26 10 23 0 25 -3 22
-42 -3 -40 -5 -43 -35 -46 -67 -7 -100 83 -51 135 23 25 78 29 85 7z m723 -4
c0 -16 7 -20 30 -20 17 0 30 -4 30 -10 0 -5 -13 -10 -30 -10 -25 0 -30 -4 -30
-24 0 -40 11 -56 36 -56 13 0 24 -4 24 -10 0 -14 -54 -12 -68 2 -7 7 -12 29
-12 50 0 27 -4 38 -15 38 -8 0 -15 5 -15 10 0 6 7 10 15 10 8 0 15 9 15 20 0
11 5 20 10 20 6 0 10 -9 10 -20z m1690 0 c0 -16 7 -20 30 -20 17 0 30 -4 30
-10 0 -5 -13 -10 -30 -10 -25 0 -30 -4 -30 -24 0 -40 11 -56 36 -56 13 0 24
-4 24 -10 0 -14 -54 -12 -68 2 -7 7 -12 29 -12 50 0 27 -4 38 -15 38 -8 0 -15
5 -15 10 0 6 7 10 15 10 8 0 15 9 15 20 0 11 5 20 10 20 6 0 10 -9 10 -20z
m810 -50 c0 -56 3 -70 15 -70 8 0 15 -4 15 -10 0 -5 -22 -10 -50 -10 -27 0
-50 5 -50 10 0 6 9 10 20 10 18 0 20 7 20 56 0 51 -2 55 -20 49 -11 -4 -20 -2
-20 4 0 13 30 30 53 31 15 0 17 -10 17 -70z m540 60 c0 -5 -13 -10 -30 -10
-43 0 -41 -33 3 -45 65 -20 37 -95 -35 -95 -16 0 -28 5 -28 10 0 6 13 10 29
10 60 0 63 55 3 62 -23 3 -27 8 -30 41 l-3 37 45 0 c25 0 46 -4 46 -10z m131
-7 c22 -26 18 -112 -5 -129 -48 -34 -96 -1 -96 66 0 48 24 80 59 80 16 0 35
-7 42 -17z m379 2 c7 -9 10 -27 7 -45 -4 -16 -2 -32 3 -35 15 -9 12 -32 -6
-49 -17 -18 -84 -22 -84 -6 0 6 15 10 34 10 19 0 38 5 41 10 9 15 -14 40 -36
40 -27 0 -24 18 4 22 14 2 22 10 22 23 0 15 -8 21 -33 23 -18 2 -30 8 -27 13
10 14 61 11 75 -6z m144 -7 c8 -13 8 -23 -2 -38 -10 -16 -10 -24 0 -40 24 -37
-14 -69 -67 -56 -31 8 -39 35 -18 58 13 14 14 21 5 30 -16 16 -15 41 0 56 18
18 69 11 82 -10z m-4364 -63 c0 -32 5 -47 15 -51 25 -10 45 16 45 57 0 22 5
39 10 39 6 0 10 -26 10 -58 l0 -58 -37 -1 c-21 -1 -44 3 -50 9 -15 12 -18 108
-3 108 6 0 10 -20 10 -45z m198 33 c7 -7 12 -22 12 -35 0 -20 -5 -23 -41 -23
-28 0 -39 -4 -36 -12 2 -7 20 -13 40 -13 39 0 48 -9 21 -19 -53 -21 -101 16
-88 68 10 41 65 61 92 34z m132 2 c0 -5 -13 -10 -30 -10 -40 0 -38 -16 5 -34
36 -15 44 -33 23 -54 -14 -14 -88 -16 -88 -2 0 6 16 10 35 10 43 0 46 17 6 31
-57 20 -46 69 15 69 19 0 34 -4 34 -10z m130 0 c0 -5 -13 -10 -30 -10 -40 0
-38 -16 5 -34 36 -15 44 -33 23 -54 -14 -14 -88 -16 -88 -2 0 6 16 10 35 10
43 0 46 17 6 31 -57 20 -46 69 15 69 19 0 34 -4 34 -10z m518 -2 c7 -7 12 -22
12 -35 0 -20 -5 -23 -41 -23 -28 0 -39 -4 -36 -12 2 -7 20 -13 40 -13 39 0 48
-9 21 -19 -53 -21 -101 16 -88 68 10 41 65 61 92 34z m260 0 c14 -12 17 -108
2 -108 -5 0 -10 20 -10 45 0 32 -5 47 -15 51 -25 10 -45 -16 -45 -57 0 -22 -4
-39 -10 -39 -6 0 -10 26 -10 58 l0 58 38 1 c20 1 43 -3 50 -9z m62 -33 c0 -32
5 -47 15 -51 25 -10 45 16 45 57 0 22 5 39 10 39 6 0 10 -26 10 -58 l0 -58
-37 -1 c-21 -1 -44 3 -50 9 -15 12 -18 108 -3 108 6 0 10 -20 10 -45z m218
-17 c2 -36 -1 -58 -8 -58 -5 0 -10 22 -10 50 0 49 -12 66 -24 34 -3 -9 -6 -31
-6 -50 0 -19 -4 -34 -10 -34 -5 0 -10 23 -10 50 0 49 -12 66 -24 34 -3 -9 -6
-31 -6 -50 0 -19 -4 -34 -10 -34 -6 0 -10 26 -10 59 l0 58 58 -1 57 -1 3 -57z
m240 50 c7 -7 12 -22 12 -35 0 -20 -5 -23 -41 -23 -28 0 -39 -4 -36 -12 2 -7
20 -13 40 -13 39 0 48 -9 21 -19 -53 -21 -101 16 -88 68 10 41 65 61 92 34z
m142 -8 c13 -25 13 -30 -5 -30 -8 0 -15 7 -15 15 0 8 -6 15 -13 15 -23 0 -37
-23 -37 -62 0 -27 -4 -38 -15 -38 -12 0 -15 13 -15 58 l0 57 45 2 c35 1 47 -3
55 -17z m378 8 c7 -7 12 -22 12 -35 0 -20 -5 -23 -41 -23 -28 0 -39 -4 -36
-12 2 -7 20 -13 40 -13 39 0 48 -9 21 -19 -53 -21 -101 16 -88 68 10 41 65 61
92 34z m182 -22 c0 -42 15 -55 24 -21 8 32 24 32 32 -1 8 -32 24 -13 24 29 0
15 5 27 11 27 8 0 10 -15 5 -46 -3 -26 -6 -53 -6 -60 0 -25 -30 -15 -41 14
l-11 27 -10 -27 c-16 -46 -34 -33 -45 32 -8 48 -7 60 4 60 8 0 13 -12 13 -34z
m208 22 c7 -7 12 -22 12 -35 0 -20 -5 -23 -41 -23 -28 0 -39 -4 -36 -12 2 -7
20 -13 40 -13 39 0 48 -9 21 -19 -53 -21 -101 16 -88 68 10 41 65 61 92 34z
m130 0 c7 -7 12 -22 12 -35 0 -20 -5 -23 -41 -23 -28 0 -39 -4 -36 -12 2 -7
20 -13 40 -13 39 0 48 -9 21 -19 -53 -21 -101 16 -88 68 10 41 65 61 92 34z
m130 0 c14 -12 17 -108 2 -108 -5 0 -10 20 -10 45 0 32 -5 47 -15 51 -25 10
-45 -16 -45 -57 0 -22 -4 -39 -10 -39 -6 0 -10 26 -10 58 l0 58 38 1 c20 1 43
-3 50 -9z m1018 1 c10 -17 -13 -36 -27 -22 -12 12 -4 33 11 33 5 0 12 -5 16
-11z m-496 -39 c0 -5 -18 -10 -40 -10 -22 0 -40 5 -40 10 0 6 18 10 40 10 22
0 40 -4 40 -10z m496 -41 c10 -17 -13 -36 -27 -22 -12 12 -4 33 11 33 5 0 12
-5 16 -11z m-3516 -224 c0 -68 2 -75 20 -75 11 0 20 -4 20 -10 0 -5 -22 -10
-50 -10 -27 0 -50 5 -50 10 0 6 9 10 20 10 18 0 20 7 20 65 0 50 -3 65 -14 65
-8 0 -18 5 -21 10 -4 6 7 10 24 10 l31 0 0 -75z m-470 55 c0 -5 -11 -10 -25
-10 -24 0 -25 -2 -25 -70 0 -40 -4 -70 -10 -70 -6 0 -10 30 -10 70 0 68 -1 70
-25 70 -14 0 -25 5 -25 10 0 6 27 10 60 10 33 0 60 -4 60 -10z m120 -62 c13
-25 13 -31 0 -55 -19 -34 -63 -42 -91 -17 -23 21 -24 52 -3 82 23 33 73 27 94
-10z m130 0 c13 -25 13 -31 0 -55 -19 -34 -63 -42 -91 -17 -23 21 -24 52 -3
82 23 33 73 27 94 -10z m390 0 c13 -25 13 -31 0 -55 -19 -34 -63 -42 -91 -17
-23 21 -24 52 -3 82 23 33 73 27 94 -10z m40 -2 c0 -42 15 -55 24 -21 8 32 24
32 32 -1 8 -32 24 -13 24 29 0 15 5 27 11 27 8 0 10 -15 5 -46 -3 -26 -6 -53
-6 -60 0 -25 -30 -15 -41 14 l-11 27 -10 -27 c-16 -46 -34 -33 -45 32 -8 48
-7 60 4 60 8 0 13 -12 13 -34z m140 -526 c0 -27 2 -30 25 -24 38 9 55 -11 55
-67 0 -27 -4 -49 -10 -49 -5 0 -10 20 -10 45 0 32 -5 47 -15 51 -25 10 -45
-16 -45 -57 0 -22 -4 -39 -10 -39 -6 0 -10 35 -10 85 0 50 4 85 10 85 6 0 10
-14 10 -30z m780 0 c0 -27 2 -29 28 -24 35 7 55 -15 54 -59 -1 -38 -26 -59
-67 -55 l-30 3 -3 83 c-2 52 1 82 8 82 5 0 10 -13 10 -30z m520 0 c0 -27 2
-29 28 -24 35 7 55 -15 54 -59 -1 -38 -26 -59 -67 -55 l-30 3 -3 83 c-2 52 1
82 8 82 5 0 10 -13 10 -30z m-2133 4 c2 -6 -8 -9 -25 -6 -50 7 -83 -66 -46
-102 25 -25 54 -20 54 9 0 16 -6 25 -15 25 -8 0 -15 5 -15 10 0 6 12 10 26 10
23 0 25 -3 22 -42 -3 -40 -5 -43 -35 -46 -67 -7 -100 83 -51 135 23 25 78 29
85 7z m723 -4 c0 -16 7 -20 30 -20 17 0 30 -4 30 -10 0 -5 -13 -10 -30 -10
-25 0 -30 -4 -30 -24 0 -40 11 -56 36 -56 13 0 24 -4 24 -10 0 -14 -54 -12
-68 2 -7 7 -12 29 -12 50 0 27 -4 38 -15 38 -8 0 -15 5 -15 10 0 6 7 10 15 10
8 0 15 9 15 20 0 11 5 20 10 20 6 0 10 -9 10 -20z m1690 0 c0 -16 7 -20 30
-20 17 0 30 -4 30 -10 0 -5 -13 -10 -30 -10 -25 0 -30 -4 -30 -24 0 -40 11
-56 36 -56 13 0 24 -4 24 -10 0 -14 -54 -12 -68 2 -7 7 -12 29 -12 50 0 27 -4
38 -15 38 -8 0 -15 5 -15 10 0 6 7 10 15 10 8 0 15 9 15 20 0 11 5 20 10 20 6
0 10 -9 10 -20z m810 -50 c0 -56 3 -70 15 -70 8 0 15 -4 15 -10 0 -5 -22 -10
-50 -10 -27 0 -50 5 -50 10 0 6 9 10 20 10 18 0 20 7 20 56 0 51 -2 55 -20 49
-11 -4 -20 -2 -20 4 0 13 30 30 53 31 15 0 17 -10 17 -70z m540 60 c0 -5 -13
-10 -30 -10 -43 0 -41 -33 3 -45 65 -20 37 -95 -35 -95 -16 0 -28 5 -28 10 0
6 13 10 29 10 60 0 63 55 3 62 -23 3 -27 8 -30 41 l-3 37 45 0 c25 0 46 -4 46
-10z m131 -7 c22 -26 18 -112 -5 -129 -48 -34 -96 -1 -96 66 0 48 24 80 59 80
16 0 35 -7 42 -17z m379 2 c7 -9 10 -27 7 -45 -4 -16 -2 -32 3 -35 15 -9 12
-32 -6 -49 -17 -18 -84 -22 -84 -6 0 6 15 10 34 10 19 0 38 5 41 10 9 15 -14
40 -36 40 -27 0 -24 18 4 22 14 2 22 10 22 23 0 15 -8 21 -33 23 -18 2 -30 8
-27 13 10 14 61 11 75 -6z m134 -1 c10 -9 16 -33 16 -59 0 -35 -5 -48 -26 -64
-28 -22 -74 -29 -74 -11 0 6 11 10 24 10 24 0 56 23 56 40 0 5 -7 7 -15 4 -28
-11 -64 5 -71 32 -13 49 53 85 90 48z m-4354 -69 c0 -32 5 -47 15 -51 25 -10
45 16 45 57 0 22 5 39 10 39 6 0 10 -26 10 -58 l0 -58 -37 -1 c-21 -1 -44 3
-50 9 -15 12 -18 108 -3 108 6 0 10 -20 10 -45z m198 33 c7 -7 12 -22 12 -35
0 -20 -5 -23 -41 -23 -28 0 -39 -4 -36 -12 2 -7 20 -13 40 -13 39 0 48 -9 21
-19 -53 -21 -101 16 -88 68 10 41 65 61 92 34z m132 2 c0 -5 -13 -10 -30 -10
-40 0 -38 -16 5 -34 36 -15 44 -33 23 -54 -14 -14 -88 -16 -88 -2 0 6 16 10
35 10 43 0 46 17 6 31 -57 20 -46 69 15 69 19 0 34 -4 34 -10z m130 0 c0 -5
-13 -10 -30 -10 -40 0 -38 -16 5 -34 36 -15 44 -33 23 -54 -14 -14 -88 -16
-88 -2 0 6 16 10 35 10 43 0 46 17 6 31 -57 20 -46 69 15 69 19 0 34 -4 34
-10z m518 -2 c7 -7 12 -22 12 -35 0 -20 -5 -23 -41 -23 -28 0 -39 -4 -36 -12
2 -7 20 -13 40 -13 39 0 48 -9 21 -19 -53 -21 -101 16 -88 68 10 41 65 61 92
34z m260 0 c14 -12 17 -108 2 -108 -5 0 -10 20 -10 45 0 32 -5 47 -15 51 -25
10 -45 -16 -45 -57 0 -22 -4 -39 -10 -39 -6 0 -10 26 -10 58 l0 58 38 1 c20 1
43 -3 50 -9z m62 -33 c0 -32 5 -47 15 -51 25 -10 45 16 45 57 0 22 5 39 10 39
6 0 10 -26 10 -58 l0 -58 -37 -1 c-21 -1 -44 3 -50 9 -15 12 -18 108 -3 108 6
0 10 -20 10 -45z m218 -17 c2 -36 -1 -58 -8 -58 -5 0 -10 22 -10 50 0 49 -12
66 -24 34 -3 -9 -6 -31 -6 -50 0 -19 -4 -34 -10 -34 -5 0 -10 23 -10 50 0 49
-12 66 -24 34 -3 -9 -6 -31 -6 -50 0 -19 -4 -34 -10 -34 -6 0 -10 26 -10 59
l0 58 58 -1 57 -1 3 -57z m240 50 c7 -7 12 -22 12 -35 0 -20 -5 -23 -41 -23
-28 0 -39 -4 -36 -12 2 -7 20 -13 40 -13 39 0 48 -9 21 -19 -53 -21 -101 16
-88 68 10 41 65 61 92 34z m142 -8 c13 -25 13 -30 -5 -30 -8 0 -15 7 -15 15 0
8 -6 15 -13 15 -23 0 -37 -23 -37 -62 0 -27 -4 -38 -15 -38 -12 0 -15 13 -15
58 l0 57 45 2 c35 1 47 -3 55 -17z m378 8 c7 -7 12 -22 12 -35 0 -20 -5 -23
-41 -23 -28 0 -39 -4 -36 -12 2 -7 20 -13 40 -13 39 0 48 -9 21 -19 -53 -21
-101 16 -88 68 10 41 65 61 92 34z m182 -22 c0 -42 15 -55 24 -21 8 32 24 32
32 -1 8 -32 24 -13 24 29 0 15 5 27 11 27 8 0 10 -15 5 -46 -3 -26 -6 -53 -6
-60 0 -25 -30 -15 -41 14 l-11 27 -10 -27 c-16 -46 -34 -33 -45 32 -8 48 -7
60 4 60 8 0 13 -12 13 -34z m208 22 c7 -7 12 -22 12 -35 0 -20 -5 -23 -41 -23
-28 0 -39 -4 -36 -12 2 -7 20 -13 40 -13 39 0 48 -9 21 -19 -53 -21 -101 16
-88 68 10 41 65 61 92 34z m130 0 c7 -7 12 -22 12 -35 0 -20 -5 -23 -41 -23
-28 0 -39 -4 -36 -12 2 -7 20 -13 40 -13 39 0 48 -9 21 -19 -53 -21 -101 16
-88 68 10 41 65 61 92 34z m130 0 c14 -12 17 -108 2 -108 -5 0 -10 20 -10 45
0 32 -5 47 -15 51 -25 10 -45 -16 -45 -57 0 -22 -4 -39 -10 -39 -6 0 -10 26
-10 58 l0 58 38 1 c20 1 43 -3 50 -9z m1018 1 c10 -17 -13 -36 -27 -22 -12 12
-4 33 11 33 5 0 12 -5 16 -11z m-496 -39 c0 -5 -18 -10 -40 -10 -22 0 -40 5
-40 10 0 6 18 10 40 10 22 0 40 -4 40 -10z m496 -41 c10 -17 -13 -36 -27 -22
-12 12 -4 33 11 33 5 0 12 -5 16 -11z m-2346 -209 c0 -78 -17 -78 -22 0 -2 43
1 60 10 60 8 0 12 -19 12 -60z m130 0 c0 -78 -17 -78 -22 0 -2 43 1 60 10 60
8 0 12 -19 12 -60z m-1783 34 c2 -7 -6 -10 -22 -7 -35 7 -55 -13 -55 -57 0
-44 20 -64 55 -57 16 3 24 0 22 -7 -5 -16 -59 -19 -80 -4 -10 8 -21 32 -24 53
-7 55 25 97 70 93 17 -2 32 -8 34 -14z m723 -4 c0 -16 7 -20 30 -20 17 0 30
-4 30 -10 0 -5 -13 -10 -30 -10 -25 0 -30 -4 -30 -24 0 -40 11 -56 36 -56 13
0 24 -4 24 -10 0 -14 -54 -12 -68 2 -7 7 -12 29 -12 50 0 27 -4 38 -15 38 -8
0 -15 5 -15 10 0 6 7 10 15 10 8 0 15 9 15 20 0 11 5 20 10 20 6 0 10 -9 10
-20z m-590 -52 c13 -25 13 -31 0 -55 -19 -34 -63 -42 -91 -17 -23 21 -24 52
-3 82 23 33 73 27 94 -10z m130 12 c13 -25 13 -30 -5 -30 -8 0 -15 7 -15 15 0
8 -6 15 -13 15 -23 0 -37 -23 -37 -62 0 -27 -4 -38 -15 -38 -12 0 -15 13 -15
58 l0 57 45 2 c35 1 47 -3 55 -17z m130 0 c13 -25 13 -30 -5 -30 -8 0 -15 7
-15 15 0 8 -6 15 -13 15 -23 0 -37 -23 -37 -62 0 -27 -4 -38 -15 -38 -12 0
-15 13 -15 58 l0 57 45 2 c35 1 47 -3 55 -17z m118 8 c7 -7 12 -22 12 -35 0
-20 -5 -23 -41 -23 -28 0 -39 -4 -36 -12 2 -7 20 -13 40 -13 39 0 48 -9 21
-19 -53 -21 -101 16 -88 68 10 41 65 61 92 34z m137 2 c4 -6 -7 -10 -25 -10
-23 0 -33 -6 -42 -25 -14 -32 4 -55 44 -55 17 0 27 -4 23 -10 -10 -16 -62 -12
-79 6 -21 20 -20 63 1 86 17 19 68 25 78 8z m405 0 c0 -5 -4 -10 -10 -10 -5 0
-7 -6 -4 -14 7 -19 -23 -46 -52 -46 -38 0 -28 -18 12 -22 47 -4 68 -32 40 -54
-39 -28 -122 -8 -102 25 4 6 7 32 8 58 0 26 5 54 10 61 12 14 98 16 98 2z m40
-35 c0 -32 5 -47 15 -51 25 -10 45 16 45 57 0 22 5 39 10 39 6 0 10 -26 10
-58 l0 -58 -37 -1 c-21 -1 -44 3 -50 9 -15 12 -18 108 -3 108 6 0 10 -20 10
-45z m198 33 c7 -7 12 -22 12 -35 0 -20 -5 -23 -41 -23 -28 0 -39 -4 -36 -12
2 -7 20 -13 40 -13 39 0 48 -9 21 -19 -53 -21 -101 16 -88 68 10 41 65 61 92
34z m132 2 c0 -5 -13 -10 -30 -10 -40 0 -38 -16 5 -34 36 -15 44 -33 23 -54
-14 -14 -88 -16 -88 -2 0 6 16 10 35 10 43 0 46 17 6 31 -57 20 -46 69 15 69
19 0 34 -4 34 -10z m130 0 c0 -5 -13 -10 -30 -10 -40 0 -38 -16 5 -34 36 -15
44 -33 23 -54 -14 -14 -88 -16 -88 -2 0 6 16 10 35 10 43 0 46 17 6 31 -57 20
-46 69 15 69 19 0 34 -4 34 -10z m101 -95 c-1 -15 -24 -12 -29 3 -3 9 2 13 12
10 10 -1 17 -7 17 -13z m130 0 c-1 -15 -24 -12 -29 3 -3 9 2 13 12 10 10 -1
17 -7 17 -13z m-1781 -345 c0 -6 -27 -10 -60 -10 -33 0 -60 4 -60 10 0 6 27
10 60 10 33 0 60 -4 60 -10z m130 0 c0 -6 -27 -10 -60 -10 -33 0 -60 4 -60 10
0 6 27 10 60 10 33 0 60 -4 60 -10z m130 0 c0 -6 -27 -10 -60 -10 -33 0 -60 4
-60 10 0 6 27 10 60 10 33 0 60 -4 60 -10z m130 0 c0 -6 -27 -10 -60 -10 -33
0 -60 4 -60 10 0 6 27 10 60 10 33 0 60 -4 60 -10z m130 0 c0 -6 -27 -10 -60
-10 -33 0 -60 4 -60 10 0 6 27 10 60 10 33 0 60 -4 60 -10z m130 0 c0 -6 -27
-10 -60 -10 -33 0 -60 4 -60 10 0 6 27 10 60 10 33 0 60 -4 60 -10z m130 0 c0
-6 -27 -10 -60 -10 -33 0 -60 4 -60 10 0 6 27 10 60 10 33 0 60 -4 60 -10z
m130 0 c0 -6 -27 -10 -60 -10 -33 0 -60 4 -60 10 0 6 27 10 60 10 33 0 60 -4
60 -10z m130 0 c0 -6 -27 -10 -60 -10 -33 0 -60 4 -60 10 0 6 27 10 60 10 33
0 60 -4 60 -10z m130 0 c0 -6 -27 -10 -60 -10 -33 0 -60 4 -60 10 0 6 27 10
60 10 33 0 60 -4 60 -10z m130 0 c0 -6 -27 -10 -60 -10 -33 0 -60 4 -60 10 0
6 27 10 60 10 33 0 60 -4 60 -10z m130 0 c0 -6 -27 -10 -60 -10 -33 0 -60 4
-60 10 0 6 27 10 60 10 33 0 60 -4 60 -10z m130 0 c0 -6 -27 -10 -60 -10 -33
0 -60 4 -60 10 0 6 27 10 60 10 33 0 60 -4 60 -10z m130 0 c0 -6 -27 -10 -60
-10 -33 0 -60 4 -60 10 0 6 27 10 60 10 33 0 60 -4 60 -10z m130 0 c0 -6 -27
-10 -60 -10 -33 0 -60 4 -60 10 0 6 27 10 60 10 33 0 60 -4 60 -10z m130 0 c0
-6 -27 -10 -60 -10 -33 0 -60 4 -60 10 0 6 27 10 60 10 33 0 60 -4 60 -10z
m130 0 c0 -6 -27 -10 -60 -10 -33 0 -60 4 -60 10 0 6 27 10 60 10 33 0 60 -4
60 -10z m130 0 c0 -6 -27 -10 -60 -10 -33 0 -60 4 -60 10 0 6 27 10 60 10 33
0 60 -4 60 -10z m130 0 c0 -6 -27 -10 -60 -10 -33 0 -60 4 -60 10 0 6 27 10
60 10 33 0 60 -4 60 -10z m130 0 c0 -6 -27 -10 -60 -10 -33 0 -60 4 -60 10 0
6 27 10 60 10 33 0 60 -4 60 -10z m130 0 c0 -6 -27 -10 -60 -10 -33 0 -60 4
-60 10 0 6 27 10 60 10 33 0 60 -4 60 -10z m130 0 c0 -6 -27 -10 -60 -10 -33
0 -60 4 -60 10 0 6 27 10 60 10 33 0 60 -4 60 -10z m130 0 c0 -6 -27 -10 -60
-10 -33 0 -60 4 -60 10 0 6 27 10 60 10 33 0 60 -4 60 -10z m130 0 c0 -6 -27
-10 -60 -10 -33 0 -60 4 -60 10 0 6 27 10 60 10 33 0 60 -4 60 -10z m130 0 c0
-6 -27 -10 -60 -10 -33 0 -60 4 -60 10 0 6 27 10 60 10 33 0 60 -4 60 -10z
m130 0 c0 -6 -27 -10 -60 -10 -33 0 -60 4 -60 10 0 6 27 10 60 10 33 0 60 -4
60 -10z m130 0 c0 -6 -27 -10 -60 -10 -33 0 -60 4 -60 10 0 6 27 10 60 10 33
0 60 -4 60 -10z m130 0 c0 -6 -27 -10 -60 -10 -33 0 -60 4 -60 10 0 6 27 10
60 10 33 0 60 -4 60 -10z m150 0 c0 -6 -30 -10 -70 -10 -40 0 -70 4 -70 10 0
6 30 10 70 10 40 0 70 -4 70 -10z m-2880 -455 c0 -50 -4 -85 -10 -85 -5 0 -10
5 -10 11 0 8 -5 8 -15 -1 -32 -27 -74 6 -75 58 0 21 39 52 65 52 20 0 25 5 25
25 0 14 5 25 10 25 6 0 10 -35 10 -85z m570 55 c0 -27 2 -29 28 -24 35 7 55
-15 54 -59 -1 -38 -26 -59 -67 -55 l-30 3 -3 83 c-2 52 1 82 8 82 5 0 10 -13
10 -30z m-1353 4 c2 -6 -8 -9 -25 -6 -50 7 -83 -66 -46 -102 25 -25 54 -20 54
9 0 16 -6 25 -15 25 -8 0 -15 5 -15 10 0 6 12 10 26 10 23 0 25 -3 22 -42 -3
-40 -5 -43 -35 -46 -67 -7 -100 83 -51 135 23 25 78 29 85 7z m996 -46 l26
-63 0 63 c1 34 5 62 11 62 6 0 10 -33 10 -80 0 -99 -16 -105 -53 -22 l-25 57
-1 -57 c-1 -45 -5 -58 -16 -58 -12 0 -15 16 -15 80 0 71 2 80 18 80 13 0 26
-18 45 -62z m1067 47 c7 -9 10 -27 7 -45 -4 -16 -2 -32 3 -35 15 -9 12 -32 -6
-49 -17 -18 -84 -22 -84 -6 0 6 15 10 34 10 19 0 38 5 41 10 9 15 -14 40 -36
40 -27 0 -24 18 4 22 14 2 22 10 22 23 0 15 -8 21 -33 23 -18 2 -30 8 -27 13
10 14 61 11 75 -6z m134 -1 c10 -9 16 -33 16 -59 0 -35 -5 -48 -26 -64 -28
-22 -74 -29 -74 -11 0 6 11 10 24 10 24 0 56 23 56 40 0 5 -7 7 -15 4 -28 -11
-64 5 -71 32 -13 49 53 85 90 48z m-2144 -69 c0 -32 5 -47 15 -51 25 -10 45
16 45 57 0 22 5 39 10 39 6 0 10 -26 10 -58 l0 -58 -37 -1 c-21 -1 -44 3 -50
9 -15 12 -18 108 -3 108 6 0 10 -20 10 -45z m198 33 c7 -7 12 -22 12 -35 0
-20 -5 -23 -41 -23 -28 0 -39 -4 -36 -12 2 -7 20 -13 40 -13 39 0 48 -9 21
-19 -53 -21 -101 16 -88 68 10 41 65 61 92 34z m132 2 c0 -5 -13 -10 -30 -10
-40 0 -38 -16 5 -34 36 -15 44 -33 23 -54 -14 -14 -88 -16 -88 -2 0 6 16 10
35 10 43 0 46 17 6 31 -57 20 -46 69 15 69 19 0 34 -4 34 -10z m130 0 c0 -5
-13 -10 -30 -10 -40 0 -38 -16 5 -34 36 -15 44 -33 23 -54 -14 -14 -88 -16
-88 -2 0 6 16 10 35 10 43 0 46 17 6 31 -57 20 -46 69 15 69 19 0 34 -4 34
-10z m128 -2 c7 -7 12 -22 12 -35 0 -20 -5 -23 -41 -23 -28 0 -39 -4 -36 -12
2 -7 20 -13 40 -13 39 0 48 -9 21 -19 -53 -21 -101 16 -88 68 10 41 65 61 92
34z m452 -33 c0 -32 5 -47 15 -51 25 -10 45 16 45 57 0 22 5 39 10 39 6 0 10
-26 10 -58 l0 -58 -37 -1 c-21 -1 -44 3 -50 9 -15 12 -18 108 -3 108 6 0 10
-20 10 -45z m218 -17 c2 -36 -1 -58 -8 -58 -5 0 -10 22 -10 50 0 49 -12 66
-24 34 -3 -9 -6 -31 -6 -50 0 -19 -4 -34 -10 -34 -5 0 -10 23 -10 50 0 49 -12
66 -24 34 -3 -9 -6 -31 -6 -50 0 -19 -4 -34 -10 -34 -6 0 -10 26 -10 59 l0 58
58 -1 57 -1 3 -57z m240 50 c7 -7 12 -22 12 -35 0 -20 -5 -23 -41 -23 -28 0
-39 -4 -36 -12 2 -7 20 -13 40 -13 39 0 48 -9 21 -19 -53 -21 -101 16 -88 68
10 41 65 61 92 34z m142 -8 c13 -25 13 -30 -5 -30 -8 0 -15 7 -15 15 0 8 -6
15 -13 15 -23 0 -37 -23 -37 -62 0 -27 -4 -38 -15 -38 -12 0 -15 13 -15 58 l0
57 45 2 c35 1 47 -3 55 -17z m96 9 c10 -17 -13 -36 -27 -22 -12 12 -4 33 11
33 5 0 12 -5 16 -11z m0 -80 c10 -17 -13 -36 -27 -22 -12 12 -4 33 11 33 5 0
12 -5 16 -11z m-1306 -224 c0 -68 2 -75 20 -75 11 0 20 -4 20 -10 0 -5 -22
-10 -50 -10 -27 0 -50 5 -50 10 0 6 9 10 20 10 18 0 20 7 20 65 0 50 -3 65
-14 65 -8 0 -18 5 -21 10 -4 6 7 10 24 10 l31 0 0 -75z m740 45 c0 -27 2 -29
28 -24 35 7 55 -15 54 -59 -1 -38 -26 -59 -67 -55 l-30 3 -3 83 c-2 52 1 82 8
82 5 0 10 -13 10 -30z m-1239 10 c23 -13 25 -43 4 -60 -13 -10 -12 -17 5 -51
15 -29 17 -39 7 -39 -7 0 -21 16 -30 35 -9 19 -23 35 -32 35 -10 0 -15 -10
-15 -35 0 -19 -4 -35 -10 -35 -6 0 -10 33 -10 80 l0 80 31 0 c17 0 39 -5 50
-10z m609 -10 c0 -16 7 -20 30 -20 17 0 30 -4 30 -10 0 -5 -13 -10 -30 -10
-25 0 -30 -4 -30 -24 0 -40 11 -56 36 -56 13 0 24 -4 24 -10 0 -14 -54 -12
-68 2 -7 7 -12 29 -12 50 0 27 -4 38 -15 38 -8 0 -15 5 -15 10 0 6 7 10 15 10
8 0 15 9 15 20 0 11 5 20 10 20 6 0 10 -9 10 -20z m273 -42 l26 -63 0 63 c1
34 5 62 11 62 6 0 10 -33 10 -80 0 -99 -16 -105 -53 -22 l-25 57 -1 -57 c-1
-45 -5 -58 -16 -58 -12 0 -15 16 -15 80 0 71 2 80 18 80 13 0 26 -18 45 -62z
m1067 47 c7 -9 10 -27 7 -45 -4 -16 -2 -32 3 -35 15 -9 12 -32 -6 -49 -17 -18
-84 -22 -84 -6 0 6 15 10 34 10 19 0 38 5 41 10 9 15 -14 40 -36 40 -27 0 -24
18 4 22 14 2 22 10 22 23 0 15 -8 21 -33 23 -18 2 -30 8 -27 13 10 14 61 11
75 -6z m134 -1 c10 -9 16 -33 16 -59 0 -35 -5 -48 -26 -64 -28 -22 -74 -29
-74 -11 0 6 11 10 24 10 24 0 56 23 56 40 0 5 -7 7 -15 4 -28 -11 -64 5 -71
32 -13 49 53 85 90 48z m-1946 -36 c7 -7 12 -22 12 -35 0 -20 -5 -23 -41 -23
-28 0 -39 -4 -36 -12 2 -7 20 -13 40 -13 39 0 48 -9 21 -19 -53 -21 -101 16
-88 68 10 41 65 61 92 34z m132 2 c0 -5 -13 -10 -30 -10 -40 0 -38 -16 5 -34
36 -15 44 -33 23 -54 -14 -14 -88 -16 -88 -2 0 6 16 10 35 10 43 0 46 17 6 31
-57 20 -46 69 15 69 19 0 34 -4 34 -10z m60 -35 c0 -32 5 -47 15 -51 25 -10
45 16 45 57 0 22 5 39 10 39 6 0 10 -26 10 -58 l0 -58 -37 -1 c-21 -1 -44 3
-50 9 -15 12 -18 108 -3 108 6 0 10 -20 10 -45z m650 0 c0 -32 5 -47 15 -51
25 -10 45 16 45 57 0 22 5 39 10 39 6 0 10 -26 10 -58 l0 -58 -37 -1 c-21 -1
-44 3 -50 9 -15 12 -18 108 -3 108 6 0 10 -20 10 -45z m218 -17 c2 -36 -1 -58
-8 -58 -5 0 -10 22 -10 50 0 49 -12 66 -24 34 -3 -9 -6 -31 -6 -50 0 -19 -4
-34 -10 -34 -5 0 -10 23 -10 50 0 49 -12 66 -24 34 -3 -9 -6 -31 -6 -50 0 -19
-4 -34 -10 -34 -6 0 -10 26 -10 59 l0 58 58 -1 57 -1 3 -57z m240 50 c7 -7 12
-22 12 -35 0 -20 -5 -23 -41 -23 -28 0 -39 -4 -36 -12 2 -7 20 -13 40 -13 39
0 48 -9 21 -19 -53 -21 -101 16 -88 68 10 41 65 61 92 34z m142 -8 c13 -25 13
-30 -5 -30 -8 0 -15 7 -15 15 0 8 -6 15 -13 15 -23 0 -37 -23 -37 -62 0 -27
-4 -38 -15 -38 -12 0 -15 13 -15 58 l0 57 45 2 c35 1 47 -3 55 -17z m96 9 c10
-17 -13 -36 -27 -22 -12 12 -4 33 11 33 5 0 12 -5 16 -11z m0 -80 c10 -17 -13
-36 -27 -22 -12 12 -4 33 11 33 5 0 12 -5 16 -11z m-1176 -224 c0 -68 2 -75
20 -75 11 0 20 -4 20 -10 0 -5 -22 -10 -50 -10 -27 0 -50 5 -50 10 0 6 9 10
20 10 18 0 20 7 20 65 0 50 -3 65 -14 65 -8 0 -18 5 -21 10 -4 6 7 10 24 10
l31 0 0 -75z m-470 55 c0 -5 -11 -10 -25 -10 -24 0 -25 -2 -25 -70 0 -40 -4
-70 -10 -70 -6 0 -10 30 -10 70 0 68 -1 70 -25 70 -14 0 -25 5 -25 10 0 6 27
10 60 10 33 0 60 -4 60 -10z m190 -10 c0 -16 7 -20 30 -20 17 0 30 -4 30 -10
0 -5 -13 -10 -30 -10 -25 0 -30 -4 -30 -24 0 -40 11 -56 36 -56 13 0 24 -4 24
-10 0 -14 -54 -12 -68 2 -7 7 -12 29 -12 50 0 27 -4 38 -15 38 -8 0 -15 5 -15
10 0 6 7 10 15 10 8 0 15 9 15 20 0 11 5 20 10 20 6 0 10 -9 10 -20z m577 4
c2 -6 -8 -9 -25 -6 -50 7 -83 -66 -46 -102 25 -25 54 -20 54 9 0 16 -6 25 -15
25 -8 0 -15 5 -15 10 0 6 12 10 26 10 23 0 25 -3 22 -42 -3 -40 -5 -43 -35
-46 -67 -7 -100 83 -51 135 23 25 78 29 85 7z m1173 1 c0 -25 -64 -145 -77
-145 -9 0 -1 24 22 70 l35 70 -45 0 c-25 0 -45 5 -45 10 0 6 25 10 55 10 42 0
55 -4 55 -15z m-1820 -57 c13 -25 13 -31 0 -55 -19 -34 -63 -42 -91 -17 -23
21 -24 52 -3 82 23 33 73 27 94 -10z m248 20 c7 -7 12 -33 12 -58 l0 -47 -47
1 c-39 1 -48 5 -51 20 -5 23 23 46 55 46 16 0 21 4 16 16 -4 11 -15 15 -34 12
-28 -4 -36 1 -22 15 11 11 58 8 71 -5z m452 -33 c0 -32 5 -47 15 -51 25 -10
45 16 45 57 0 22 5 39 10 39 6 0 10 -26 10 -58 l0 -58 -37 -1 c-21 -1 -44 3
-50 9 -15 12 -18 108 -3 108 6 0 10 -20 10 -45z m198 33 c7 -7 12 -22 12 -35
0 -20 -5 -23 -41 -23 -28 0 -39 -4 -36 -12 2 -7 20 -13 40 -13 39 0 48 -9 21
-19 -53 -21 -101 16 -88 68 10 41 65 61 92 34z m132 2 c0 -5 -13 -10 -30 -10
-40 0 -38 -16 5 -34 36 -15 44 -33 23 -54 -14 -14 -88 -16 -88 -2 0 6 16 10
35 10 43 0 46 17 6 31 -57 20 -46 69 15 69 19 0 34 -4 34 -10z m130 0 c0 -5
-13 -10 -30 -10 -40 0 -38 -16 5 -34 36 -15 44 -33 23 -54 -14 -14 -88 -16
-88 -2 0 6 16 10 35 10 43 0 46 17 6 31 -57 20 -46 69 15 69 19 0 34 -4 34
-10z m128 -2 c7 -7 12 -22 12 -35 0 -20 -5 -23 -41 -23 -28 0 -39 -4 -36 -12
2 -7 20 -13 40 -13 39 0 48 -9 21 -19 -53 -21 -101 16 -88 68 10 41 65 61 92
34z m132 2 c0 -5 -13 -10 -30 -10 -40 0 -38 -16 5 -34 36 -15 44 -33 23 -54
-14 -14 -88 -16 -88 -2 0 6 16 10 35 10 43 0 46 17 6 31 -57 20 -46 69 15 69
19 0 34 -4 34 -10z m106 -1 c10 -17 -13 -36 -27 -22 -12 12 -4 33 11 33 5 0
12 -5 16 -11z m0 -80 c10 -17 -13 -36 -27 -22 -12 12 -4 33 11 33 5 0 12 -5
16 -11z m-1656 -359 c0 -6 -27 -10 -60 -10 -33 0 -60 4 -60 10 0 6 27 10 60
10 33 0 60 -4 60 -10z m130 0 c0 -6 -27 -10 -60 -10 -33 0 -60 4 -60 10 0 6
27 10 60 10 33 0 60 -4 60 -10z m130 0 c0 -6 -27 -10 -60 -10 -33 0 -60 4 -60
10 0 6 27 10 60 10 33 0 60 -4 60 -10z m130 0 c0 -6 -27 -10 -60 -10 -33 0
-60 4 -60 10 0 6 27 10 60 10 33 0 60 -4 60 -10z m130 0 c0 -6 -27 -10 -60
-10 -33 0 -60 4 -60 10 0 6 27 10 60 10 33 0 60 -4 60 -10z m130 0 c0 -6 -27
-10 -60 -10 -33 0 -60 4 -60 10 0 6 27 10 60 10 33 0 60 -4 60 -10z m130 0 c0
-6 -27 -10 -60 -10 -33 0 -60 4 -60 10 0 6 27 10 60 10 33 0 60 -4 60 -10z
m130 0 c0 -6 -27 -10 -60 -10 -33 0 -60 4 -60 10 0 6 27 10 60 10 33 0 60 -4
60 -10z m130 0 c0 -6 -27 -10 -60 -10 -33 0 -60 4 -60 10 0 6 27 10 60 10 33
0 60 -4 60 -10z m130 0 c0 -6 -27 -10 -60 -10 -33 0 -60 4 -60 10 0 6 27 10
60 10 33 0 60 -4 60 -10z m130 0 c0 -6 -27 -10 -60 -10 -33 0 -60 4 -60 10 0
6 27 10 60 10 33 0 60 -4 60 -10z m130 0 c0 -6 -27 -10 -60 -10 -33 0 -60 4
-60 10 0 6 27 10 60 10 33 0 60 -4 60 -10z m130 0 c0 -6 -27 -10 -60 -10 -33
0 -60 4 -60 10 0 6 27 10 60 10 33 0 60 -4 60 -10z m130 0 c0 -6 -27 -10 -60
-10 -33 0 -60 4 -60 10 0 6 27 10 60 10 33 0 60 -4 60 -10z m130 0 c0 -6 -27
-10 -60 -10 -33 0 -60 4 -60 10 0 6 27 10 60 10 33 0 60 -4 60 -10z m130 0 c0
-6 -27 -10 -60 -10 -33 0 -60 4 -60 10 0 6 27 10 60 10 33 0 60 -4 60 -10z
m130 0 c0 -6 -27 -10 -60 -10 -33 0 -60 4 -60 10 0 6 27 10 60 10 33 0 60 -4
60 -10z m130 0 c0 -6 -27 -10 -60 -10 -33 0 -60 4 -60 10 0 6 27 10 60 10 33
0 60 -4 60 -10z m130 0 c0 -6 -27 -10 -60 -10 -33 0 -60 4 -60 10 0 6 27 10
60 10 33 0 60 -4 60 -10z m130 0 c0 -6 -27 -10 -60 -10 -33 0 -60 4 -60 10 0
6 27 10 60 10 33 0 60 -4 60 -10z m130 0 c0 -6 -27 -10 -60 -10 -33 0 -60 4
-60 10 0 6 27 10 60 10 33 0 60 -4 60 -10z m130 0 c0 -6 -27 -10 -60 -10 -33
0 -60 4 -60 10 0 6 27 10 60 10 33 0 60 -4 60 -10z m130 0 c0 -6 -27 -10 -60
-10 -33 0 -60 4 -60 10 0 6 27 10 60 10 33 0 60 -4 60 -10z m130 0 c0 -6 -27
-10 -60 -10 -33 0 -60 4 -60 10 0 6 27 10 60 10 33 0 60 -4 60 -10z m130 0 c0
-6 -27 -10 -60 -10 -33 0 -60 4 -60 10 0 6 27 10 60 10 33 0 60 -4 60 -10z
m130 0 c0 -6 -27 -10 -60 -10 -33 0 -60 4 -60 10 0 6 27 10 60 10 33 0 60 -4
60 -10z m130 0 c0 -6 -27 -10 -60 -10 -33 0 -60 4 -60 10 0 6 27 10 60 10 33
0 60 -4 60 -10z m130 0 c0 -6 -27 -10 -60 -10 -33 0 -60 4 -60 10 0 6 27 10
60 10 33 0 60 -4 60 -10z m150 0 c0 -6 -30 -10 -70 -10 -40 0 -70 4 -70 10 0
6 30 10 70 10 40 0 70 -4 70 -10z"/>
<path d="M1942 7428 c-6 -6 -12 -25 -12 -41 0 -25 3 -28 28 -25 24 3 27 7 27
38 0 37 -20 51 -43 28z"/>
<path d="M2462 7428 c-6 -6 -12 -25 -12 -41 0 -25 3 -28 28 -25 24 3 27 7 27
38 0 37 -20 51 -43 28z"/>
<path d="M4139 7453 c-15 -39 -8 -45 28 -22 20 13 30 26 26 35 -9 24 -43 16
-54 -13z"/>
<path d="M4159 7401 c-18 -15 -21 -22 -13 -31 20 -20 49 -7 52 23 4 32 -7 34
-39 8z"/>
<path d="M507 7434 c-15 -15 -6 -24 24 -24 20 0 29 4 27 13 -5 14 -40 21 -51
11z"/>
<path d="M1287 7434 c-15 -15 -6 -24 24 -24 20 0 29 4 27 13 -5 14 -40 21 -51
11z"/>
<path d="M2067 7434 c-15 -15 -6 -24 24 -24 20 0 29 4 27 13 -5 14 -40 21 -51
11z"/>
<path d="M2587 7434 c-15 -15 -6 -24 24 -24 20 0 29 4 27 13 -5 14 -40 21 -51
11z"/>
<path d="M2977 7434 c-15 -15 -6 -24 24 -24 20 0 29 4 27 13 -5 14 -40 21 -51
11z"/>
<path d="M3107 7434 c-15 -15 -6 -24 24 -24 20 0 29 4 27 13 -5 14 -40 21 -51
11z"/>
<path d="M370 7131 c-15 -29 4 -63 33 -59 18 2 22 10 22 38 0 28 -4 36 -22 38
-14 2 -26 -4 -33 -17z"/>
<path d="M500 7131 c-15 -29 4 -63 33 -59 18 2 22 10 22 38 0 28 -4 36 -22 38
-14 2 -26 -4 -33 -17z"/>
<path d="M890 7131 c-15 -29 4 -63 33 -59 18 2 22 10 22 38 0 28 -4 36 -22 38
-14 2 -26 -4 -33 -17z"/>
<path d="M1942 6558 c-6 -6 -12 -25 -12 -41 0 -25 3 -28 28 -25 24 3 27 7 27
38 0 37 -20 51 -43 28z"/>
<path d="M2462 6558 c-6 -6 -12 -25 -12 -41 0 -25 3 -28 28 -25 24 3 27 7 27
38 0 37 -20 51 -43 28z"/>
<path d="M4139 6583 c-15 -39 -8 -45 28 -22 20 13 30 26 26 35 -9 24 -43 16
-54 -13z"/>
<path d="M4159 6531 c-18 -15 -21 -22 -13 -31 20 -20 49 -7 52 23 4 32 -7 34
-39 8z"/>
<path d="M4542 6565 l-22 -35 25 0 c22 0 25 4 25 35 0 19 -1 35 -2 35 -2 0
-13 -16 -26 -35z"/>
<path d="M4659 6583 c-15 -39 -8 -45 28 -22 20 13 30 26 26 35 -9 24 -43 16
-54 -13z"/>
<path d="M4679 6531 c-18 -15 -21 -22 -13 -31 20 -20 49 -7 52 23 4 32 -7 34
-39 8z"/>
<path d="M507 6564 c-15 -15 -6 -24 24 -24 20 0 29 4 27 13 -5 14 -40 21 -51
11z"/>
<path d="M1287 6564 c-15 -15 -6 -24 24 -24 20 0 29 4 27 13 -5 14 -40 21 -51
11z"/>
<path d="M2067 6564 c-15 -15 -6 -24 24 -24 20 0 29 4 27 13 -5 14 -40 21 -51
11z"/>
<path d="M2587 6564 c-15 -15 -6 -24 24 -24 20 0 29 4 27 13 -5 14 -40 21 -51
11z"/>
<path d="M2977 6564 c-15 -15 -6 -24 24 -24 20 0 29 4 27 13 -5 14 -40 21 -51
11z"/>
<path d="M3107 6564 c-15 -15 -6 -24 24 -24 20 0 29 4 27 13 -5 14 -40 21 -51
11z"/>
<path d="M370 6261 c-15 -29 4 -63 33 -59 18 2 22 10 22 38 0 28 -4 36 -22 38
-14 2 -26 -4 -33 -17z"/>
<path d="M500 6261 c-15 -29 4 -63 33 -59 18 2 22 10 22 38 0 28 -4 36 -22 38
-14 2 -26 -4 -33 -17z"/>
<path d="M1025 6270 c-9 -15 4 -30 26 -30 12 0 19 7 19 20 0 21 -33 29 -45 10z"/>
<path d="M1020 6165 c0 -10 10 -15 30 -15 20 0 30 5 30 15 0 10 -10 15 -30 15
-20 0 -30 -5 -30 -15z"/>
<path d="M1942 5688 c-6 -6 -12 -25 -12 -41 0 -25 3 -28 28 -25 24 3 27 7 27
38 0 37 -20 51 -43 28z"/>
<path d="M2462 5688 c-6 -6 -12 -25 -12 -41 0 -25 3 -28 28 -25 24 3 27 7 27
38 0 37 -20 51 -43 28z"/>
<path d="M4139 5713 c-15 -39 -8 -45 28 -22 20 13 30 26 26 35 -9 24 -43 16
-54 -13z"/>
<path d="M4159 5661 c-18 -15 -21 -22 -13 -31 20 -20 49 -7 52 23 4 32 -7 34
-39 8z"/>
<path d="M4659 5713 c-15 -39 -8 -45 28 -22 20 13 30 26 26 35 -9 24 -43 16
-54 -13z"/>
<path d="M4679 5661 c-18 -15 -21 -22 -13 -31 20 -20 49 -7 52 23 4 32 -7 34
-39 8z"/>
<path d="M507 5694 c-15 -15 -6 -24 24 -24 20 0 29 4 27 13 -5 14 -40 21 -51
11z"/>
<path d="M1287 5694 c-15 -15 -6 -24 24 -24 20 0 29 4 27 13 -5 14 -40 21 -51
11z"/>
<path d="M2067 5694 c-15 -15 -6 -24 24 -24 20 0 29 4 27 13 -5 14 -40 21 -51
11z"/>
<path d="M2587 5694 c-15 -15 -6 -24 24 -24 20 0 29 4 27 13 -5 14 -40 21 -51
11z"/>
<path d="M2977 5694 c-15 -15 -6 -24 24 -24 20 0 29 4 27 13 -5 14 -40 21 -51
11z"/>
<path d="M3107 5694 c-15 -15 -6 -24 24 -24 20 0 29 4 27 13 -5 14 -40 21 -51
11z"/>
<path d="M370 5391 c-15 -29 4 -63 33 -59 18 2 22 10 22 38 0 28 -4 36 -22 38
-14 2 -26 -4 -33 -17z"/>
<path d="M500 5391 c-15 -29 4 -63 33 -59 18 2 22 10 22 38 0 28 -4 36 -22 38
-14 2 -26 -4 -33 -17z"/>
<path d="M890 5391 c-15 -29 4 -63 33 -59 18 2 22 10 22 38 0 28 -4 36 -22 38
-14 2 -26 -4 -33 -17z"/>
<path d="M1942 4818 c-6 -6 -12 -25 -12 -41 0 -25 3 -28 28 -25 24 3 27 7 27
38 0 37 -20 51 -43 28z"/>
<path d="M2462 4818 c-6 -6 -12 -25 -12 -41 0 -25 3 -28 28 -25 24 3 27 7 27
38 0 37 -20 51 -43 28z"/>
<path d="M4139 4843 c-15 -39 -8 -45 28 -22 20 13 30 26 26 35 -9 24 -43 16
-54 -13z"/>
<path d="M4159 4791 c-18 -15 -21 -22 -13 -31 20 -20 49 -7 52 23 4 32 -7 34
-39 8z"/>
<path d="M507 4824 c-15 -15 -6 -24 24 -24 20 0 29 4 27 13 -5 14 -40 21 -51
11z"/>
<path d="M1287 4824 c-15 -15 -6 -24 24 -24 20 0 29 4 27 13 -5 14 -40 21 -51
11z"/>
<path d="M2067 4824 c-15 -15 -6 -24 24 -24 20 0 29 4 27 13 -5 14 -40 21 -51
11z"/>
<path d="M2587 4824 c-15 -15 -6 -24 24 -24 20 0 29 4 27 13 -5 14 -40 21 -51
11z"/>
<path d="M2977 4824 c-15 -15 -6 -24 24 -24 20 0 29 4 27 13 -5 14 -40 21 -51
11z"/>
<path d="M3107 4824 c-15 -15 -6 -24 24 -24 20 0 29 4 27 13 -5 14 -40 21 -51
11z"/>
<path d="M370 4521 c-15 -29 4 -63 33 -59 18 2 22 10 22 38 0 28 -4 36 -22 38
-14 2 -26 -4 -33 -17z"/>
<path d="M500 4521 c-15 -29 4 -63 33 -59 18 2 22 10 22 38 0 28 -4 36 -22 38
-14 2 -26 -4 -33 -17z"/>
<path d="M890 4521 c-15 -29 4 -63 33 -59 18 2 22 10 22 38 0 28 -4 36 -22 38
-14 2 -26 -4 -33 -17z"/>
<path d="M1942 3948 c-6 -6 -12 -25 -12 -41 0 -25 3 -28 28 -25 24 3 27 7 27
38 0 37 -20 51 -43 28z"/>
<path d="M2462 3948 c-6 -6 -12 -25 -12 -41 0 -25 3 -28 28 -25 24 3 27 7 27
38 0 37 -20 51 -43 28z"/>
<path d="M4139 3973 c-15 -39 -8 -45 28 -22 20 13 30 26 26 35 -9 24 -43 16
-54 -13z"/>
<path d="M4159 3921 c-18 -15 -21 -22 -13 -31 20 -20 49 -7 52 23 4 32 -7 34
-39 8z"/>
<path d="M4542 3955 l-22 -35 25 0 c22 0 25 4 25 35 0 19 -1 35 -2 35 -2 0
-13 -16 -26 -35z"/>
<path d="M4659 3973 c-15 -39 -8 -45 28 -22 20 13 30 26 26 35 -9 24 -43 16
-54 -13z"/>
<path d="M4679 3921 c-18 -15 -21 -22 -13 -31 20 -20 49 -7 52 23 4 32 -7 34
-39 8z"/>
<path d="M507 3954 c-15 -15 -6 -24 24 -24 20 0 29 4 27 13 -5 14 -40 21 -51
11z"/>
<path d="M1287 3954 c-15 -15 -6 -24 24 -24 20 0 29 4 27 13 -5 14 -40 21 -51
11z"/>
<path d="M2067 3954 c-15 -15 -6 -24 24 -24 20 0 29 4 27 13 -5 14 -40 21 -51
11z"/>
<path d="M2587 3954 c-15 -15 -6 -24 24 -24 20 0 29 4 27 13 -5 14 -40 21 -51
11z"/>
<path d="M2977 3954 c-15 -15 -6 -24 24 -24 20 0 29 4 27 13 -5 14 -40 21 -51
11z"/>
<path d="M3107 3954 c-15 -15 -6 -24 24 -24 20 0 29 4 27 13 -5 14 -40 21 -51
11z"/>
<path d="M370 3651 c-15 -29 4 -63 33 -59 18 2 22 10 22 38 0 28 -4 36 -22 38
-14 2 -26 -4 -33 -17z"/>
<path d="M500 3651 c-15 -29 4 -63 33 -59 18 2 22 10 22 38 0 28 -4 36 -22 38
-14 2 -26 -4 -33 -17z"/>
<path d="M1025 3660 c-9 -15 4 -30 26 -30 12 0 19 7 19 20 0 21 -33 29 -45 10z"/>
<path d="M1020 3555 c0 -10 10 -15 30 -15 20 0 30 5 30 15 0 10 -10 15 -30 15
-20 0 -30 -5 -30 -15z"/>
<path d="M1942 3078 c-6 -6 -12 -25 -12 -41 0 -25 3 -28 28 -25 24 3 27 7 27
38 0 37 -20 51 -43 28z"/>
<path d="M2462 3078 c-6 -6 -12 -25 -12 -41 0 -25 3 -28 28 -25 24 3 27 7 27
38 0 37 -20 51 -43 28z"/>
<path d="M4139 3103 c-15 -39 -8 -45 28 -22 20 13 30 26 26 35 -9 24 -43 16
-54 -13z"/>
<path d="M4159 3051 c-18 -15 -21 -22 -13 -31 20 -20 49 -7 52 23 4 32 -7 34
-39 8z"/>
<path d="M4664 3119 c-3 -6 1 -18 10 -27 15 -15 17 -15 32 0 19 19 11 38 -16
38 -10 0 -22 -5 -26 -11z"/>
<path d="M4671 3051 c-19 -12 -6 -41 18 -41 26 0 36 17 21 35 -14 17 -20 18
-39 6z"/>
<path d="M507 3084 c-15 -15 -6 -24 24 -24 20 0 29 4 27 13 -5 14 -40 21 -51
11z"/>
<path d="M1287 3084 c-15 -15 -6 -24 24 -24 20 0 29 4 27 13 -5 14 -40 21 -51
11z"/>
<path d="M2067 3084 c-15 -15 -6 -24 24 -24 20 0 29 4 27 13 -5 14 -40 21 -51
11z"/>
<path d="M2587 3084 c-15 -15 -6 -24 24 -24 20 0 29 4 27 13 -5 14 -40 21 -51
11z"/>
<path d="M2977 3084 c-15 -15 -6 -24 24 -24 20 0 29 4 27 13 -5 14 -40 21 -51
11z"/>
<path d="M3107 3084 c-15 -15 -6 -24 24 -24 20 0 29 4 27 13 -5 14 -40 21 -51
11z"/>
<path d="M370 2781 c-15 -29 4 -63 33 -59 18 2 22 10 22 38 0 28 -4 36 -22 38
-14 2 -26 -4 -33 -17z"/>
<path d="M500 2781 c-15 -29 4 -63 33 -59 18 2 22 10 22 38 0 28 -4 36 -22 38
-14 2 -26 -4 -33 -17z"/>
<path d="M890 2781 c-15 -29 4 -63 33 -59 18 2 22 10 22 38 0 28 -4 36 -22 38
-14 2 -26 -4 -33 -17z"/>
<path d="M1942 2208 c-6 -6 -12 -25 -12 -41 0 -25 3 -28 28 -25 24 3 27 7 27
38 0 37 -20 51 -43 28z"/>
<path d="M2462 2208 c-6 -6 -12 -25 -12 -41 0 -25 3 -28 28 -25 24 3 27 7 27
38 0 37 -20 51 -43 28z"/>
<path d="M4139 2233 c-15 -39 -8 -45 28 -22 20 13 30 26 26 35 -9 24 -43 16
-54 -13z"/>
<path d="M4159 2181 c-18 -15 -21 -22 -13 -31 20 -20 49 -7 52 23 4 32 -7 34
-39 8z"/>
<path d="M4667 2253 c-4 -3 -7 -17 -7 -30 0 -18 6 -23 24 -23 30 0 40 13 31
40 -6 19 -35 27 -48 13z"/>
<path d="M507 2214 c-15 -15 -6 -24 24 -24 20 0 29 4 27 13 -5 14 -40 21 -51
11z"/>
<path d="M1287 2214 c-15 -15 -6 -24 24 -24 20 0 29 4 27 13 -5 14 -40 21 -51
11z"/>
<path d="M2067 2214 c-15 -15 -6 -24 24 -24 20 0 29 4 27 13 -5 14 -40 21 -51
11z"/>
<path d="M2587 2214 c-15 -15 -6 -24 24 -24 20 0 29 4 27 13 -5 14 -40 21 -51
11z"/>
<path d="M2977 2214 c-15 -15 -6 -24 24 -24 20 0 29 4 27 13 -5 14 -40 21 -51
11z"/>
<path d="M3107 2214 c-15 -15 -6 -24 24 -24 20 0 29 4 27 13 -5 14 -40 21 -51
11z"/>
<path d="M370 1911 c-15 -29 4 -63 33 -59 18 2 22 10 22 38 0 28 -4 36 -22 38
-14 2 -26 -4 -33 -17z"/>
<path d="M767 1924 c-15 -15 -6 -24 24 -24 20 0 29 4 27 13 -5 14 -40 21 -51
11z"/>
<path d="M1285 1920 c-9 -15 4 -30 26 -30 12 0 19 7 19 20 0 21 -33 29 -45 10z"/>
<path d="M1280 1815 c0 -10 10 -15 30 -15 20 0 30 5 30 15 0 10 -10 15 -30 15
-20 0 -30 -5 -30 -15z"/>
<path d="M1547 1924 c-15 -15 -6 -24 24 -24 20 0 29 4 27 13 -5 14 -40 21 -51
11z"/>
<path d="M1027 1053 c-13 -13 -7 -64 8 -69 23 -9 45 15 45 47 0 24 -4 29 -23
29 -13 0 -27 -3 -30 -7z"/>
<path d="M1682 1048 c-6 -6 -12 -25 -12 -41 0 -25 3 -28 28 -25 24 3 27 7 27
38 0 37 -20 51 -43 28z"/>
<path d="M2457 1093 c-4 -3 -7 -17 -7 -30 0 -18 6 -23 24 -23 30 0 40 13 31
40 -6 19 -35 27 -48 13z"/>
<path d="M507 1054 c-15 -15 -6 -24 24 -24 20 0 29 4 27 13 -5 14 -40 21 -51
11z"/>
<path d="M897 1054 c-15 -15 -6 -24 24 -24 20 0 29 4 27 13 -5 14 -40 21 -51
11z"/>
<path d="M1807 1054 c-15 -15 -6 -24 24 -24 20 0 29 4 27 13 -5 14 -40 21 -51
11z"/>
<path d="M1552 758 c-6 -6 -12 -25 -12 -41 0 -25 3 -28 28 -25 24 3 27 7 27
38 0 37 -20 51 -43 28z"/>
<path d="M240 784 c0 -21 4 -25 23 -22 14 2 23 11 25 26 3 18 -1 22 -22 22
-21 0 -26 -5 -26 -26z"/>
<path d="M2327 803 c-4 -3 -7 -17 -7 -30 0 -18 6 -23 24 -23 30 0 40 13 31 40
-6 19 -35 27 -48 13z"/>
<path d="M377 764 c-15 -15 -6 -24 24 -24 20 0 29 4 27 13 -5 14 -40 21 -51
11z"/>
<path d="M1677 764 c-15 -15 -6 -24 24 -24 20 0 29 4 27 13 -5 14 -40 21 -51
11z"/>
<path d="M370 461 c-15 -29 4 -63 33 -59 18 2 22 10 22 38 0 28 -4 36 -22 38
-14 2 -26 -4 -33 -17z"/>
<path d="M635 419 c-4 -6 -5 -13 -1 -16 8 -8 56 6 56 17 0 13 -47 13 -55 -1z"/>
<path d="M1287 474 c-15 -15 -6 -24 24 -24 20 0 29 4 27 13 -5 14 -40 21 -51
11z"/>
<path d="M1677 474 c-15 -15 -6 -24 24 -24 20 0 29 4 27 13 -5 14 -40 21 -51
11z"/>
</g>
</svg>
